<svg width="40" height="40" viewBox="0 0 40 40" fill="none" xmlns="http://www.w3.org/2000/svg">
<g clip-path="url(#clip0_3119_1245)">
<path d="M0 4C0 1.79086 1.79086 0 4 0H36C38.2091 0 40 1.79086 40 4V36C40 38.2091 38.2091 40 36 40H4C1.79086 40 0 38.2091 0 36V4Z" fill="#013366"/>
<g clip-path="url(#clip1_3119_1245)">
<path d="M14.6327 17.1333C14.2884 17.9825 14.0983 18.9104 14.0983 19.8874C14.0983 20.8644 14.2884 21.7923 14.6327 22.6415C14.8491 23.1792 14.59 23.789 14.0524 24.0087C13.5147 24.2283 12.9049 23.9661 12.6852 23.4284C12.2426 22.3333 12 21.1366 12 19.8874C12 18.6382 12.2426 17.4415 12.6852 16.3465C12.9049 15.8088 13.5147 15.5497 14.0524 15.7661C14.59 15.9825 14.8491 16.5956 14.6327 17.1333Z" fill="white"/>
<path d="M28 19.8888C28 18.6396 27.7574 17.4429 27.3148 16.3478C27.0951 15.8101 26.4853 15.5478 25.9476 15.7675C25.41 15.9872 25.1509 16.597 25.3673 17.1347C25.7116 17.9839 25.9017 18.9117 25.9017 19.8888C25.9017 20.8658 25.7116 21.7937 25.3673 22.6428C25.1509 23.1805 25.41 23.7936 25.9476 24.01C26.4853 24.2264 27.0984 23.9674 27.3148 23.4297C27.7574 22.3346 28 21.1379 28 19.8888Z" fill="white"/>
<path d="M24.6425 20.1833C24.6425 19.3728 24.4618 18.598 24.1351 17.8948C23.9131 17.4121 23.3138 17.1945 22.8 17.4031C22.2862 17.6117 22.0516 18.1749 22.2767 18.6576C22.4924 19.1225 22.6129 19.638 22.6129 20.1833C22.6129 20.7286 22.4924 21.2441 22.2767 21.709C22.0516 22.1917 22.2862 22.7519 22.8 22.9635C23.3138 23.1751 23.91 22.9545 24.1351 22.4718C24.4618 21.7686 24.6425 20.9938 24.6425 20.1833Z" fill="white"/>
<path d="M17.2982 20.1846C17.2982 19.6393 17.4187 19.1238 17.6343 18.6589C17.8595 18.1762 17.6248 17.616 17.111 17.4044C16.5973 17.1928 16.0011 17.4133 15.7759 17.8961C15.4493 18.5993 15.2685 19.3741 15.2685 20.1846C15.2685 20.9951 15.4493 21.7698 15.7759 22.4731C15.9979 22.9558 16.5973 23.1733 17.111 22.9648C17.6248 22.7562 17.8595 22.193 17.6343 21.7102C17.4187 21.2454 17.2982 20.7299 17.2982 20.1846Z" fill="white"/>
<path d="M21.2514 20.1839C21.2514 20.8609 20.7026 21.4096 20.0257 21.4096C19.3488 21.4096 18.8 20.8609 18.8 20.1839C18.8 19.507 19.3488 18.9583 20.0257 18.9583C20.7026 18.9583 21.2514 19.507 21.2514 20.1839Z" fill="white"/>
</g>
</g>
<defs>
<clipPath id="clip0_3119_1245">
<path d="M0 4C0 1.79086 1.79086 0 4 0H36C38.2091 0 40 1.79086 40 4V36C40 38.2091 38.2091 40 36 40H4C1.79086 40 0 38.2091 0 36V4Z" fill="white"/>
</clipPath>
<clipPath id="clip1_3119_1245">
<rect width="16" height="16" fill="white" transform="translate(12 12)"/>
</clipPath>
</defs>
</svg>
