<svg width="55" height="50" viewBox="0 0 55 50" fill="none" xmlns="http://www.w3.org/2000/svg">
<g clip-path="url(#clip0_3517_11938)">
<path d="M7.58928 31.4618C7.58928 30.6086 7.52871 30.3825 6.951 30.336L6.54879 30.3082C6.48356 30.2571 6.5022 30.0248 6.56121 30.0202C7.25383 29.9582 8.1266 29.9272 9.32084 29.9272C10.1299 29.9272 10.8987 29.9845 11.4764 30.2493C12.0277 30.4909 12.4516 30.9523 12.4516 31.691C12.4516 32.5209 11.9127 32.9483 11.1425 33.2704C11.1425 33.3865 11.245 33.4206 11.3863 33.4438C12.0789 33.5599 13.1054 34.136 13.1054 35.3686C13.1054 36.7064 12.0013 37.6061 9.692 37.6061C9.31928 37.6061 8.69188 37.5705 8.15145 37.5705C7.61102 37.5705 7.14979 37.5937 6.67613 37.6061C6.59848 37.5705 6.57363 37.3862 6.64973 37.3181L6.88112 37.284C7.56132 37.1803 7.58617 37.0533 7.58617 35.8424V31.4618H7.58928ZM8.64219 32.9948C8.64219 33.3184 8.65461 33.3416 9.30997 33.3184C10.6191 33.2719 11.3242 32.9266 11.3242 31.8427C11.3242 30.7588 10.3877 30.2865 9.41246 30.2865C9.12982 30.2865 8.93725 30.3097 8.82233 30.3562C8.69344 30.3902 8.64219 30.4491 8.64219 30.6566V32.9963V32.9948ZM8.64219 35.6705C8.64219 36.0855 8.66859 36.6739 8.91085 36.9263C9.15467 37.1911 9.53981 37.2499 9.92494 37.2499C11.0664 37.2499 11.9391 36.7885 11.9391 35.6364C11.9391 34.7259 11.4251 33.6652 9.38606 33.6652C8.69344 33.6652 8.64219 33.7349 8.64219 33.9656V35.6721V35.6705Z" fill="#353433"/>
<path d="M22.0273 32.5969C22.0273 31.5532 22.0056 31.386 21.358 31.3364L21.0847 31.3163C21.0194 31.2776 21.0412 31.0995 21.1064 31.0701C21.6546 31.0902 22.0273 31.0995 22.487 31.0995C22.9467 31.0995 23.2977 31.0902 23.8459 31.0701C23.9111 31.0995 23.9328 31.2776 23.8676 31.3163L23.5943 31.3364C22.9482 31.386 22.9249 31.5532 22.9249 32.5969V36.1026C22.9249 37.1463 22.9467 37.2841 23.5943 37.3537L23.8676 37.3832C23.9328 37.4219 23.9111 37.6 23.8459 37.6294C23.2977 37.6092 22.9249 37.6 22.487 37.6C22.0273 37.6 21.6546 37.6092 21.1064 37.6294C21.0412 37.6 21.0194 37.442 21.0847 37.3832L21.358 37.3537C22.004 37.2841 22.0273 37.1463 22.0273 36.1026V32.5969Z" fill="#353433"/>
<path d="M28.1087 36.1227C28.1087 37.1571 28.1289 37.3042 28.7252 37.3537L29.0545 37.3831C29.1166 37.4219 29.0948 37.5999 29.0343 37.6293C28.4488 37.6092 28.0994 37.5999 27.6894 37.5999C27.2794 37.5999 26.9191 37.6092 26.2622 37.6293C26.2001 37.5999 26.1799 37.4327 26.2622 37.3831L26.6318 37.3537C27.2173 37.3042 27.2686 37.1571 27.2686 36.1227V31.7204C27.2686 31.4154 27.2686 31.4061 26.9611 31.4061H26.3958C25.9547 31.4061 25.3895 31.4246 25.1332 31.6523C24.8863 31.8691 24.7838 32.0858 24.6704 32.332C24.5881 32.3909 24.4453 32.3413 24.4033 32.2639C24.5679 31.821 24.7217 31.1908 24.7931 30.796C24.8242 30.7758 24.9577 30.7665 24.9888 30.796C25.0509 31.1103 25.3895 31.101 25.8616 31.101H30.0204C30.5748 31.101 30.668 31.0809 30.8217 30.8254C30.873 30.8053 30.9864 30.8161 31.0066 30.8548C30.8932 31.259 30.8217 32.0564 30.8528 32.3522C30.8124 32.4311 30.6369 32.4311 30.5857 32.3723C30.5546 32.1261 30.4832 31.7622 30.3295 31.6538C30.0934 31.4866 29.7036 31.4076 29.1383 31.4076H28.4084C28.1009 31.4076 28.1103 31.4169 28.1103 31.7421V36.1242L28.1087 36.1227Z" fill="#353433"/>
<path d="M32.5114 32.5969C32.5114 31.5532 32.4896 31.386 31.8436 31.3364L31.5703 31.3163C31.505 31.2776 31.5268 31.0995 31.592 31.0701C32.1402 31.0902 32.5129 31.0995 32.9726 31.0995C33.4323 31.0995 33.7833 31.0902 34.3314 31.0701C34.3967 31.0995 34.4184 31.2776 34.3532 31.3163L34.0783 31.3364C33.4323 31.386 33.409 31.5532 33.409 32.5969V36.1026C33.409 37.1463 33.4307 37.2841 34.0783 37.3537L34.3532 37.3832C34.4184 37.4219 34.3967 37.6 34.3314 37.6294C33.7833 37.6092 33.4105 37.6 32.9726 37.6C32.5114 37.6 32.1387 37.6092 31.592 37.6294C31.5268 37.6 31.505 37.442 31.5703 37.3832L31.8436 37.3537C32.4896 37.2841 32.5114 37.1463 32.5114 36.1026V32.5969Z" fill="#353433"/>
<path d="M37.4235 37.73C36.4451 37.73 35.827 37.4745 35.6065 37.3661C35.4667 37.1493 35.3146 36.4494 35.2913 35.9864C35.3487 35.9167 35.5242 35.8981 35.5708 35.957C35.7447 36.4587 36.223 37.4234 37.5757 37.4234C38.5541 37.4234 39.0324 36.8814 39.0324 36.2914C39.0324 35.8579 38.9283 35.3763 38.0773 34.9133L36.97 34.3032C36.3877 33.978 35.7106 33.4175 35.7106 32.6092C35.7106 31.6739 36.5725 30.9152 38.0882 30.9152C38.45 30.9152 38.8693 30.974 39.1721 31.0437C39.3243 31.0824 39.4874 31.1025 39.5806 31.1025C39.6862 31.3394 39.7902 31.8907 39.7902 32.3041C39.7436 32.363 39.5573 32.3924 39.4983 32.3336C39.3476 31.8613 39.0324 31.2202 37.9127 31.2202C36.793 31.2202 36.5259 31.8597 36.5259 32.3134C36.5259 32.8848 37.0849 33.2983 37.5167 33.5243L38.4484 34.0167C39.183 34.4008 39.9051 34.9721 39.9051 35.9074C39.9051 36.9913 38.9376 37.73 37.4235 37.73Z" fill="#353433"/>
<path d="M43.289 34.4194C42.7797 34.4194 42.7579 34.4395 42.7579 34.7352V36.1242C42.7579 37.1586 42.8107 37.2964 43.4055 37.3553L43.713 37.3847C43.7767 37.4234 43.7549 37.6015 43.6913 37.6309C43.1167 37.6107 42.7564 37.6015 42.3417 37.6015C41.8852 37.6015 41.5233 37.6216 41.1087 37.6309C41.045 37.6015 41.0233 37.4435 41.0869 37.3847L41.2671 37.3553C41.8619 37.2562 41.8836 37.1586 41.8836 36.1242V32.5798C41.8836 31.5454 41.8091 31.3782 41.2562 31.3395L40.9798 31.3193C40.9161 31.2806 40.9378 31.1025 41.0015 31.0731C41.5218 31.0824 41.8836 31.1025 42.3402 31.1025C42.7548 31.1025 43.1167 31.0933 43.5732 31.0731C43.6369 31.1025 43.6587 31.2806 43.595 31.3193L43.3931 31.3395C42.7766 31.3983 42.7548 31.5454 42.7548 32.5798V33.7117C42.7548 34.0168 42.7766 34.0276 43.2859 34.0276H46.3251C46.836 34.0276 46.8562 34.0183 46.8562 33.7117V32.5798C46.8562 31.5454 46.8345 31.3983 46.2086 31.3395L46.0067 31.3193C45.9431 31.2806 45.9633 31.1025 46.0285 31.0731C46.5177 31.0933 46.878 31.1025 47.3143 31.1025C47.7507 31.1025 48.0908 31.0933 48.5676 31.0731C48.6313 31.1025 48.653 31.2806 48.5893 31.3193L48.3657 31.3395C47.7492 31.3983 47.729 31.5454 47.729 32.5798V36.1242C47.729 37.1586 47.7507 37.2856 48.3657 37.3553L48.6204 37.3847C48.6841 37.4234 48.6639 37.6015 48.5987 37.6309C48.0877 37.6107 47.7274 37.6015 47.3128 37.6015C46.878 37.6015 46.4944 37.6107 46.0269 37.6309C45.9633 37.6015 45.9415 37.4435 46.0052 37.3847L46.2071 37.3553C46.8547 37.2562 46.8547 37.1586 46.8547 36.1242V34.7352C46.8547 34.4395 46.8329 34.4194 46.3236 34.4194H43.2844H43.289Z" fill="#353433"/>
<path d="M1.5079 39.7926C2.38067 39.1143 3.49415 38.783 4.73808 38.783C5.38411 38.783 6.29416 38.913 6.85633 39.0679C6.9992 39.1035 7.08306 39.1267 7.19177 39.1159C7.2042 39.39 7.26321 40.1379 7.35949 40.8641C7.30048 40.9477 7.12034 40.9586 7.03647 40.8873C6.85633 40.079 6.319 39.1515 4.58433 39.1515C2.75338 39.1515 1.19731 40.3051 1.19731 42.7656C1.19731 45.2261 2.7891 46.6414 4.7505 46.6414C6.29416 46.6414 6.97591 45.6427 7.25078 44.9412C7.33464 44.8824 7.51479 44.9056 7.56138 44.9892C7.47752 45.6071 7.16692 46.3921 6.98678 46.6182C6.84391 46.6414 6.69948 46.6894 6.56748 46.7359C6.30347 46.8319 5.44313 47.01 4.67751 47.01C3.6013 47.01 2.57169 46.7963 1.69736 46.2125C0.740733 45.5591 -0.00158691 44.4767 -0.00158691 42.9437C-0.00158691 41.6244 0.596307 40.494 1.50635 39.7926H1.5079Z" fill="#353433"/>
<path d="M8.05212 43.6373C8.05212 41.6677 9.6082 40.161 11.7435 40.161C14.1382 40.161 15.3418 41.8055 15.3418 43.5382C15.3418 45.528 13.7453 46.9758 11.7435 46.9758C9.44203 46.9758 8.05212 45.4103 8.05212 43.6373ZM14.3044 43.8448C14.3044 42.2205 13.5481 40.4676 11.5665 40.4676C10.4887 40.4676 9.08796 41.166 9.08796 43.323C9.08796 44.7801 9.83493 46.6708 11.8771 46.6708C13.121 46.6708 14.3028 45.785 14.3028 43.8448H14.3044Z" fill="#353433"/>
<path d="M27.0402 42.7919C27.0402 42.1818 27.02 41.0483 26.8414 40.7541C26.7685 40.6364 26.5805 40.5667 26.3181 40.5466L26.0572 40.5265C25.9951 40.4568 26.0153 40.3298 26.0774 40.2896C26.4749 40.3097 26.8632 40.319 27.2716 40.319C27.7111 40.319 27.9938 40.3097 28.3711 40.2896C28.455 40.3391 28.4441 40.4661 28.3913 40.5265L28.1397 40.5466C27.8773 40.5667 27.6785 40.655 27.6164 40.7835C27.4704 41.1087 27.4704 42.2406 27.4704 42.7919V43.9052C27.4704 44.7615 27.3244 45.6674 26.7374 46.2589C26.287 46.7219 25.5121 46.9774 24.7372 46.9774C24.015 46.9774 23.2929 46.8489 22.7804 46.4354C22.226 46.0018 21.9636 45.2834 21.9636 44.1112V41.7869C21.9636 40.7634 21.9418 40.5961 21.3362 40.5466L21.0737 40.5265C21.0116 40.4878 21.0318 40.3205 21.0939 40.2896C21.6173 40.3097 21.9729 40.319 22.3922 40.319C22.8115 40.319 23.1671 40.3097 23.6796 40.2896C23.7417 40.319 23.7635 40.4862 23.6998 40.5265L23.4482 40.5466C22.841 40.5961 22.8208 40.7634 22.8208 41.7869V43.9145C22.8208 45.5001 23.3442 46.5438 24.9453 46.5438C26.4625 46.5438 27.0387 45.4212 27.0387 43.9238V42.7919H27.0402Z" fill="#353433"/>
<path d="M39.2062 41.5609C39.2062 40.8254 39.1596 40.6365 38.6394 40.5962L38.2698 40.5606C38.2278 40.5219 38.2046 40.3237 38.2807 40.3175C38.9049 40.271 39.6923 40.2385 40.7685 40.2385C41.4969 40.2385 42.191 40.2881 42.7128 40.5173C43.2098 40.7263 43.5918 41.1243 43.5918 41.7607C43.5918 42.4761 43.1057 42.8446 42.4116 43.1233C42.4116 43.2224 42.5032 43.2534 42.6305 43.272C43.2548 43.3711 44.1804 43.8681 44.1804 44.9319C44.1804 46.0855 43.1849 46.8613 41.1024 46.8613C40.767 46.8613 40.2001 46.8304 39.714 46.8304C39.228 46.8304 38.8118 46.8505 38.3831 46.8613C38.3133 46.8304 38.29 46.6724 38.3599 46.6136L38.568 46.5841C39.1814 46.4943 39.2047 46.3844 39.2047 45.3407V41.5609H39.2062ZM40.1551 42.8833C40.1551 43.162 40.166 43.1822 40.7561 43.162C41.9363 43.1218 42.5731 42.8245 42.5731 41.8892C42.5731 40.9539 41.7282 40.5467 40.8493 40.5467C40.5946 40.5467 40.4206 40.5668 40.3166 40.6071C40.2017 40.6365 40.1551 40.686 40.1551 40.8657V42.8849V42.8833ZM40.1551 45.1921C40.1551 45.5498 40.1784 46.0577 40.3974 46.276C40.6179 46.5052 40.9642 46.5547 41.312 46.5547C42.3417 46.5547 43.129 46.1568 43.129 45.1627C43.129 44.376 42.6662 43.4624 40.826 43.4624C40.2017 43.4624 40.1551 43.5213 40.1551 43.721V45.1936V45.1921Z" fill="#353433"/>
<path d="M48.6343 49.5045H6.60315V50H48.6343V49.5045Z" fill="#9F9D9C"/>
<path d="M20.3516 37.3831L20.0767 37.3599C20.0208 37.3537 19.9727 37.3475 19.9246 37.3398C19.5239 37.2686 19.3624 36.9124 19.1745 36.5826L18.2272 34.9366C18.0641 34.6625 17.8871 34.2924 17.5128 34.2398C18.485 34.1236 19.3624 33.5646 19.3624 32.6046C19.3624 31.4959 18.2613 31.0004 17.1494 31.0004C16.4832 31.0004 15.8744 31.0189 15.1958 31.0189C14.8215 31.0189 14.3758 31.0004 14.0015 31.0004C13.7934 31.0004 13.7903 31.0422 13.7903 31.1583C13.7903 31.3302 13.8633 31.2822 14.0838 31.2946C14.8743 31.3395 14.8448 31.4866 14.8448 32.1617V36.4773C14.8448 37.0951 14.8991 37.2794 14.2485 37.3382C14.2485 37.3382 14.1491 37.3475 14.0916 37.3537L13.8167 37.3816C13.7515 37.4404 13.7732 37.5984 13.8385 37.6278C13.9844 37.6216 14.2453 37.6123 14.2453 37.6123C14.6056 37.6015 14.9659 37.5736 15.3262 37.5736C15.6865 37.5736 16.0344 37.6015 16.39 37.6123C16.5158 37.617 16.6493 37.6216 16.7969 37.6263C16.8621 37.5968 16.8854 37.4389 16.8186 37.38L16.5406 37.3537C16.4847 37.3475 16.3869 37.3398 16.3869 37.3398C15.73 37.2949 15.7704 37.1106 15.7704 36.4773V34.853C15.7704 34.7569 15.7579 34.5045 15.8294 34.4302C15.8884 34.3667 15.994 34.3776 16.0872 34.3776C16.977 34.3776 16.9646 34.4612 17.387 35.1998L18.5331 37.2577C18.6263 37.4157 18.6977 37.617 18.9307 37.617H19.9261C20.0519 37.6216 20.1839 37.6247 20.3299 37.6309C20.3951 37.6015 20.4184 37.4435 20.3516 37.3847V37.3831ZM16.3574 34.1469C16.1586 34.1469 15.761 34.2212 15.761 33.9579V32.0688C15.761 31.3302 15.7843 31.2249 16.6742 31.2249C17.7162 31.2249 18.3592 31.7529 18.3592 32.7223C18.3592 33.1434 18.207 33.5352 17.8203 33.7984C17.3761 34.105 16.8963 34.1469 16.3574 34.1469Z" fill="#353433"/>
<path d="M16.5717 41.8211C16.5717 40.7867 16.5499 40.6303 15.8651 40.5808L15.5933 40.5607C15.5281 40.5219 15.5498 40.3439 15.615 40.3145C16.2238 40.3346 16.5934 40.3439 17.0267 40.3439C17.46 40.3439 17.8203 40.3346 18.3622 40.3145C18.4275 40.3439 18.4492 40.5204 18.384 40.5607L18.1231 40.5808C17.4817 40.6303 17.46 40.7883 17.46 41.8211V45.2479C17.46 45.8673 17.4926 46.1243 17.6883 46.3117C17.8078 46.4201 18.0144 46.5377 18.8716 46.5377C19.7956 46.5377 20.0224 46.499 20.1979 46.4092C20.4153 46.2915 20.6979 45.9369 20.9153 45.4337C20.9806 45.3841 21.1871 45.4244 21.1871 45.4925C21.1871 45.6009 20.8827 46.6059 20.7305 46.8707C20.1761 46.8505 19.1449 46.8412 18.0253 46.8412H17.0251C16.5686 46.8412 16.2207 46.8505 15.6135 46.8707C15.5483 46.8412 15.5265 46.6833 15.5918 46.6245L15.9179 46.595C16.5484 46.5362 16.5701 46.3984 16.5701 45.364V41.8196L16.5717 41.8211Z" fill="#353433"/>
<path d="M45.6728 41.8397C45.6728 40.796 45.6511 40.6288 45.0221 40.5792L44.755 40.5591C44.6914 40.5204 44.7115 40.3423 44.7768 40.3129C45.3094 40.333 45.6728 40.3423 46.1201 40.3423C46.5674 40.3423 46.909 40.333 47.4432 40.3129C47.5069 40.3423 47.5286 40.5188 47.465 40.5591L47.1979 40.5792C46.5689 40.6288 46.5472 40.796 46.5472 41.8397V45.3454C46.5472 46.3891 46.5689 46.5269 47.1979 46.5965L47.465 46.626C47.5286 46.6647 47.5084 46.8428 47.4432 46.8722C46.9106 46.852 46.5472 46.8428 46.1201 46.8428C45.6728 46.8428 45.3094 46.852 44.7768 46.8722C44.7131 46.8428 44.6914 46.6848 44.755 46.626L45.0221 46.5965C45.6511 46.5269 45.6728 46.3891 45.6728 45.3454V41.8397Z" fill="#353433"/>
<path d="M37.1501 46.5934C37.0957 46.5872 36.9932 46.5794 36.9932 46.5794C36.8799 46.5686 36.7805 46.5531 36.6997 46.4649C36.5615 46.3178 36.5724 45.9012 36.5724 45.734V41.4184C36.5724 41.2295 36.5258 40.8238 36.664 40.6767C36.7339 40.5993 36.8767 40.5869 37.0056 40.5791C37.0833 40.5729 37.0848 40.5729 37.1532 40.5698L37.4265 40.5513C37.4917 40.5125 37.47 40.3345 37.4048 40.3051C37.2588 40.3097 37.1252 40.3081 36.9994 40.3128H35.8347C35.7074 40.3128 35.5924 40.3128 35.5241 40.4491L33.1496 45.3794L31.0516 40.6163C30.9817 40.4491 30.9708 40.3128 30.7518 40.3128H29.539C29.4132 40.3081 29.2734 40.3097 29.1274 40.3051C29.0622 40.3345 29.0389 40.5125 29.1057 40.5513L29.379 40.5698C29.4349 40.5745 29.5374 40.5807 29.5374 40.5807C29.9924 40.6101 30.0204 40.7108 29.9785 41.1892L29.6213 45.8176C29.5902 46.2821 29.5638 46.5283 29.0762 46.5732C29.0762 46.5732 28.9721 46.5856 28.9162 46.5918L28.6429 46.6212C28.5777 46.6801 28.5994 46.838 28.6646 46.8675C28.8091 46.8628 29.0653 46.8551 29.0653 46.8551C29.3122 46.8427 29.5654 46.821 29.8169 46.821C30.0887 46.821 30.3605 46.8458 30.6338 46.8582C30.7596 46.8628 30.8932 46.8659 31.0407 46.8721C31.1059 46.8427 31.1292 46.6847 31.0624 46.6259L30.7875 46.5965C30.7161 46.5903 30.6354 46.5825 30.6354 46.5825C29.9303 46.5345 29.9458 46.039 29.9909 45.432L30.3248 41.1273H30.4055L32.676 46.4246C32.6993 46.4974 32.7334 46.6228 32.8483 46.6228C32.9524 46.6228 32.9866 46.5082 33.0207 46.4339L35.58 41.0019H35.6608V45.7355C35.6608 45.9229 35.6841 46.31 35.4884 46.4571C35.3859 46.533 35.0536 46.5779 35.0536 46.5779C35.007 46.5856 34.9588 46.5918 34.9045 46.598L34.6296 46.6274C34.5644 46.6863 34.5861 46.8442 34.6513 46.8736C34.7958 46.869 35.052 46.8597 35.052 46.8597C35.4232 46.8504 35.8005 46.8226 36.1779 46.8226C36.4497 46.8226 36.9808 46.8489 36.9808 46.8489C37.1066 46.852 37.251 46.8659 37.3985 46.8721C37.4638 46.8427 37.4871 46.6847 37.4203 46.6259L37.147 46.5965L37.1501 46.5934Z" fill="#353433"/>
<path d="M54.9611 46.6213L54.9239 46.5919C54.8695 46.5857 54.8214 46.5795 54.7748 46.5718C54.3477 46.4773 54.1815 45.9632 54.0231 45.5978L51.8257 40.4104C51.8039 40.3485 51.7605 40.2137 51.6735 40.2137C51.5539 40.2137 51.5213 40.3593 51.4887 40.4414L49.3891 45.6179C49.313 45.813 49.1173 46.2899 48.976 46.4339C48.8673 46.5454 48.726 46.5656 48.5753 46.581C48.5753 46.581 48.4573 46.5919 48.3998 46.5981L48.142 46.6244C48.0768 46.6832 48.0986 46.8412 48.1638 46.8706C48.3098 46.866 48.5707 46.8567 48.5707 46.8567C48.858 46.852 49.1453 46.8164 49.4326 46.8164C49.6748 46.8164 49.9155 46.8427 50.1578 46.852C50.1578 46.852 50.4171 46.8613 50.5631 46.866C50.6283 46.8365 50.6516 46.6786 50.5849 46.6198L50.3115 46.5903C50.2572 46.5841 50.1625 46.5764 50.1625 46.5764C49.9109 46.5485 49.5956 46.5036 49.5956 46.2264C49.5956 46.0406 49.6826 45.8238 49.7478 45.6582L50.0739 44.8839C50.237 44.5123 50.1718 44.4705 50.6066 44.4705H52.0866C52.6084 44.4705 52.5323 44.4705 52.7606 44.9985L53.1084 45.7836C53.1628 45.9183 53.2606 46.1459 53.2606 46.2899C53.2606 46.5501 52.9764 46.5671 52.7109 46.5888C52.7109 46.5888 52.6224 46.5965 52.5463 46.6012L52.2823 46.6198C52.217 46.6786 52.2388 46.8365 52.304 46.866C52.45 46.8613 52.7109 46.8505 52.7109 46.8505C53.0199 46.8396 53.3321 46.8149 53.6302 46.8149C54.0107 46.8149 54.3928 46.8412 54.7732 46.8505C54.8975 46.8536 54.7919 46.8582 54.9363 46.8644C55.0015 46.835 55.0248 46.677 54.958 46.6182L54.9611 46.6213ZM52.0819 44.184H50.7992C50.7541 44.184 50.3985 44.2258 50.3985 44.1205C50.3985 44.0896 50.4202 44.0261 50.4311 43.9951L51.2014 42.0951C51.2231 42.0425 51.3023 41.7823 51.3909 41.7823C51.4576 41.7823 51.5477 42.0533 51.5694 42.0951L52.3273 43.8697C52.3273 43.8898 52.4049 44.057 52.4049 44.0988C52.4049 44.2134 52.1487 44.1825 52.0819 44.1825V44.184Z" fill="#353433"/>
<path d="M12.1287 24.1747C19.0705 24.1747 28.674 28.0722 35.6422 28.0722C40.6148 28.0722 45.4663 26.7498 48.2275 24.8003C48.42 23.656 48.5225 22.4807 48.5225 21.2822C48.5225 9.64855 39.0649 0.218384 27.3975 0.218384C15.73 0.218384 6.27087 9.64855 6.27087 21.2822C6.27087 22.4668 6.37026 23.6281 6.55973 24.76C7.32068 24.6191 9.90948 24.1732 12.1302 24.1732L12.1287 24.1747Z" fill="white"/>
<path d="M41.045 16.4123L41.8805 16.7576L43.7332 15.4692L41.045 16.4123Z" fill="#9F9D9C"/>
<path d="M9.91885 14.9737L7.72295 14.2041L7.83321 13.9362L10.3055 14.7584L10.3164 14.7522L10.6425 14.568L10.773 14.4859L8.07703 13.3416L8.1904 13.0598L14.2082 15.4862L14.4069 15.4042L8.43732 12.5039L8.57088 12.2313L14.8961 15.1672L14.9831 15.1223L8.85041 11.6538L8.9762 11.3936L17.8328 16.1985C17.9058 16.0653 18.0564 15.8207 18.1356 15.6906C14.7688 12.5333 11.5184 10.1641 11.5184 10.1641C11.5184 10.1641 14.8604 12.3955 18.9835 14.4704C19.1202 14.3016 19.232 14.1654 19.3764 14.0043L11.8212 7.37225L12.0247 7.16476L18.1232 12.3475L12.4735 6.70641L12.6847 6.48808L19.027 12.5999L13.1226 6.06535L13.3478 5.8625L18.8049 11.6894L13.8246 5.43202L14.0389 5.23692L20.4231 12.9839C20.5878 12.8414 20.726 12.7346 20.8984 12.603C18.9665 8.43605 16.8575 5.04645 16.8575 5.04645C16.8575 5.04645 19.1031 8.34159 22.1314 11.7916C22.3162 11.6878 22.5041 11.5887 22.6951 11.4943L22.6625 11.4741L18.1884 2.57046L18.454 2.45432L22.1609 9.53701L19.0426 2.19573L19.3205 2.07185L22.9048 10.1084L19.8843 1.84422L20.17 1.74048L23.0415 9.18086L20.7741 1.5175L21.0459 1.41685L24.0307 10.9213L24.0245 10.9461L24.0322 10.943C24.231 10.8764 24.4329 10.8176 24.6364 10.7634C24.4096 6.19851 23.7325 2.29328 23.7325 2.29328C23.7325 2.29328 24.5711 6.16445 26.0744 10.48C26.2841 10.4537 26.4953 10.432 26.7065 10.4181L26.7003 10.4088H26.7267L26.7111 10.3871L25.9082 0.459895L26.1986 0.450604L26.9751 8.40198L26.8416 0.430474L27.146 0.419635L27.4503 9.21028L27.7547 0.419635L28.0591 0.430474L27.9255 8.40198L28.702 0.450604L28.9924 0.459895L28.1896 10.3871L28.174 10.4088H28.1787V10.4119H28.1896C28.3976 10.4243 28.6042 10.446 28.8076 10.4707C30.3094 6.1598 31.1464 2.29483 31.1464 2.29483C31.1464 2.29483 30.4709 6.18767 30.2426 10.7448C30.4476 10.799 30.651 10.8579 30.8498 10.9229L33.8237 1.45246L34.0955 1.55311L31.8282 9.21493L34.6996 1.77454L34.9853 1.87829L31.9648 10.1425L35.5491 2.10592L35.8271 2.22979L32.7087 9.57108L36.4156 2.48839L36.6812 2.60452L32.2226 11.4772L32.2304 11.4803C32.4136 11.5701 32.5938 11.6646 32.7724 11.7637C35.7882 8.32456 38.0199 5.048 38.0199 5.048C38.0199 5.048 35.9249 8.41437 33.9992 12.5612C34.1716 12.6912 34.3393 12.8244 34.5024 12.9638L40.8121 5.3004L41.028 5.49551L36.046 11.7529L41.5032 5.92598L41.7283 6.12883L35.824 12.6634L42.1663 6.55156L42.3775 6.7699L36.7278 12.411L42.8263 7.22824L43.0282 7.43574L35.5646 13.9935L35.5693 13.9981C35.6997 14.1437 35.8255 14.2924 35.9482 14.4441C40.0465 12.3784 43.3574 10.1672 43.3574 10.1672C43.3574 10.1672 40.1397 12.5147 36.7899 15.6488C36.8815 15.8021 37.0306 16.0623 37.1145 16.2202L45.8453 11.4803L45.9711 11.742L39.0013 15.6829L46.2506 12.3196L46.3842 12.5921L39.6318 15.8733L39.7607 15.9182L46.6311 13.148L46.746 13.4299L40.3602 16.1381L40.4798 16.1877L44.7349 14.7739L45.3763 14.328L45.589 14.4906L46.9898 14.0245L47.1001 14.2924L45.8888 14.7182L47.639 16.0499L48.1996 16.3611C45.9571 6.9743 37.4949 0 27.3975 0C17.3001 0 8.54137 7.2205 6.47437 16.8504C6.50077 16.838 6.52717 16.8256 6.55357 16.8133L6.80981 16.6971L6.96666 16.6243L9.91885 14.9737Z" fill="#9F9D9C"/>
<path d="M6.35322 25.2152C6.35322 25.2152 9.50886 24.5865 12.1442 24.5865C19.086 24.5865 28.6896 28.484 35.6578 28.484C40.7702 28.484 45.7552 27.0858 48.4713 25.048C48.6841 23.8417 48.7944 22.6014 48.7944 21.3348C48.7944 19.619 48.5894 17.9514 48.2058 16.3533L45.3002 14.7383L41.8914 17.1214L39.5992 16.231C38.8227 16.6228 34.0349 19.8157 34.0349 19.8157L32.1962 18.4887L30.2239 18.1L27.5948 16.1907L24.5789 18.2548C24.5789 18.2548 21.2136 20.2028 21.0987 20.2028C20.9838 20.2028 17.0392 17.0858 17.0392 17.0858L15.2222 15.1765C14.9132 15.3716 13.677 15.9368 13.677 15.9368L13.6134 15.9538L12.4176 15.5853L10.9655 14.8173L6.55356 16.8117C6.52716 16.8241 6.50075 16.8365 6.47435 16.8488C6.16376 18.2951 5.99915 19.7956 5.99915 21.3332C5.99915 22.6587 6.12183 23.9548 6.35322 25.2137V25.2152Z" fill="#353433"/>
</g>
<defs>
<clipPath id="clip0_3517_11938">
<rect width="55" height="50" fill="white"/>
</clipPath>
</defs>
</svg>
