<svg width="778" height="327" viewBox="0 0 778 327" fill="none" xmlns="http://www.w3.org/2000/svg">
<g clip-path="url(#clip0_117_130)">
<path d="M39.75 226.32C84.45 226.32 146.29 251.49 191.16 251.49C223.18 251.49 254.42 242.95 272.2 230.36C273.44 222.97 274.1 215.39 274.1 207.64C274.1 132.51 213.19 71.6 138.06 71.6C62.93 71.6 2.01999 132.51 2.01999 207.64C2.01999 215.29 2.65999 222.79 3.87999 230.1C8.78999 229.2 25.46 226.32 39.75 226.32Z" fill="white"/>
<path d="M660.22 252.98H345.56V256.8H660.22V252.98Z" fill="#9F9D9C"/>
<path d="M353.63 116.64C353.63 110.25 353.18 108.56 348.87 108.21L345.87 108C345.38 107.61 345.52 105.88 345.97 105.84C351.14 105.38 357.66 105.15 366.57 105.15C372.61 105.15 378.36 105.58 382.67 107.57C386.79 109.38 389.95 112.83 389.95 118.36C389.95 124.58 385.92 127.77 380.18 130.19C380.18 131.05 380.95 131.31 382 131.48C387.17 132.34 394.84 136.66 394.84 145.9C394.84 155.91 386.6 162.65 369.35 162.65C366.57 162.65 361.88 162.39 357.85 162.39C353.63 162.39 350.38 162.56 346.83 162.65C346.26 162.39 346.06 161.01 346.64 160.49L348.37 160.23C353.45 159.45 353.64 158.5 353.64 149.44V116.64H353.63ZM361.48 128.12C361.48 130.54 361.58 130.71 366.46 130.54C376.23 130.19 381.5 127.6 381.5 119.49C381.5 111.03 374.5 107.84 367.22 107.84C365.11 107.84 363.67 108.01 362.81 108.36C361.85 108.62 361.47 109.05 361.47 110.6V128.12H361.48ZM361.48 148.14C361.48 151.25 361.67 155.65 363.49 157.55C365.31 159.53 368.19 159.97 371.06 159.97C379.59 159.97 386.1 156.52 386.1 147.89C386.1 141.07 382.27 133.13 367.03 133.13C361.86 133.13 361.47 133.65 361.47 135.37V148.14H361.48Z" fill="#252423"/>
<path d="M461.42 125.14C461.42 117.32 461.26 116.07 456.43 115.7L454.38 115.55C453.89 115.26 454.05 113.93 454.54 113.71C458.63 113.86 461.42 113.93 464.85 113.93C468.13 113.93 470.91 113.86 475 113.71C475.49 113.93 475.65 115.26 475.16 115.55L473.12 115.7C468.29 116.07 468.13 117.32 468.13 125.14V151.39C468.13 159.21 468.29 160.24 473.12 160.75L475.16 160.97C475.65 161.26 475.49 162.59 475 162.81C470.91 162.66 468.13 162.59 464.85 162.59C461.41 162.59 458.63 162.66 454.54 162.81C454.05 162.59 453.88 161.41 454.38 160.97L456.43 160.75C461.26 160.23 461.42 159.2 461.42 151.39V125.14Z" fill="#252423"/>
<path d="M506.82 151.53C506.82 159.27 506.97 160.38 511.42 160.75L513.87 160.97C514.33 161.26 514.18 162.59 513.72 162.81C509.35 162.66 506.74 162.59 503.67 162.59C500.6 162.59 497.92 162.66 493.01 162.81C492.55 162.59 492.39 161.34 493.01 160.97L495.77 160.75C500.14 160.38 500.52 159.27 500.52 151.53V118.57C500.52 116.29 500.52 116.21 498.22 116.21H494C490.7 116.21 486.49 116.36 484.57 118.05C482.73 119.67 481.96 121.29 481.12 123.14C480.5 123.58 479.43 123.21 479.13 122.62C480.35 119.3 481.51 114.58 482.04 111.64C482.27 111.49 483.27 111.42 483.5 111.64C483.96 114 486.49 113.93 490.02 113.93H521.07C525.21 113.93 525.9 113.78 527.05 111.87C527.43 111.72 528.28 111.8 528.43 112.09C527.59 115.11 527.05 121.09 527.28 123.3C526.97 123.89 525.67 123.89 525.29 123.45C525.06 121.61 524.52 118.88 523.37 118.07C521.61 116.82 518.69 116.23 514.48 116.23H509.04C506.74 116.23 506.82 116.3 506.82 118.74V151.53Z" fill="#252423"/>
<path d="M539.68 125.14C539.68 117.32 539.52 116.07 534.69 115.7L532.64 115.55C532.15 115.26 532.31 113.93 532.8 113.71C536.89 113.86 539.68 113.93 543.11 113.93C546.38 113.93 549.16 113.86 553.26 113.71C553.75 113.93 553.92 115.26 553.43 115.55L551.38 115.7C546.55 116.07 546.39 117.32 546.39 125.14V151.39C546.39 159.21 546.55 160.24 551.38 160.75L553.43 160.97C553.92 161.26 553.76 162.59 553.26 162.81C549.17 162.66 546.39 162.59 543.11 162.59C539.67 162.59 536.89 162.66 532.8 162.81C532.31 162.59 532.15 161.41 532.64 160.97L534.69 160.75C539.52 160.23 539.68 159.2 539.68 151.39V125.14Z" fill="#252423"/>
<path d="M576.36 163.57C569.05 163.57 564.44 161.65 562.79 160.84C561.75 159.22 560.61 153.98 560.44 150.52C560.88 150 562.18 149.86 562.53 150.3C563.84 154.06 567.4 161.28 577.49 161.28C584.8 161.28 588.37 157.23 588.37 152.8C588.37 149.56 587.59 145.94 581.24 142.48L572.98 137.91C568.63 135.48 563.58 131.27 563.58 125.23C563.58 118.23 570.02 112.55 581.33 112.55C584.03 112.55 587.16 112.99 589.42 113.51C590.55 113.8 591.77 113.95 592.46 113.95C593.24 115.72 594.03 119.85 594.03 122.95C593.68 123.39 592.29 123.61 591.85 123.17C590.72 119.63 588.37 114.84 580.02 114.84C571.49 114.84 569.67 119.63 569.67 123.02C569.67 127.3 573.85 130.4 577.06 132.09L584.02 135.78C589.5 138.66 594.9 142.93 594.9 149.94C594.89 158.04 587.67 163.57 576.36 163.57Z" fill="#252423"/>
<path d="M620.15 138.78C616.34 138.78 616.19 138.93 616.19 141.14V151.54C616.19 159.28 616.59 160.31 621.03 160.76L623.33 160.98C623.81 161.27 623.65 162.6 623.17 162.82C618.89 162.67 616.19 162.6 613.09 162.6C609.68 162.6 606.98 162.75 603.89 162.82C603.42 162.6 603.26 161.42 603.73 160.98L605.08 160.76C609.53 160.02 609.68 159.28 609.68 151.54V125C609.68 117.26 609.13 116.01 605 115.71L602.94 115.56C602.46 115.27 602.62 113.94 603.1 113.72C606.99 113.79 609.68 113.94 613.1 113.94C616.2 113.94 618.89 113.87 622.3 113.72C622.78 113.94 622.93 115.27 622.46 115.56L620.95 115.71C616.35 116.15 616.19 117.26 616.19 125V133.48C616.19 135.76 616.35 135.84 620.15 135.84H642.84C646.65 135.84 646.81 135.77 646.81 133.48V125C646.81 117.26 646.65 116.15 641.97 115.71L640.46 115.56C639.98 115.27 640.14 113.94 640.62 113.72C644.27 113.87 646.97 113.94 650.22 113.94C653.31 113.94 656.01 113.87 659.58 113.72C660.06 113.94 660.21 115.27 659.74 115.56L658.08 115.71C653.48 116.15 653.32 117.26 653.32 125V151.54C653.32 159.28 653.48 160.24 658.08 160.76L659.98 160.98C660.45 161.27 660.3 162.6 659.82 162.82C656.01 162.67 653.31 162.6 650.22 162.6C646.97 162.6 644.11 162.67 640.62 162.82C640.14 162.6 639.99 161.42 640.46 160.98L641.97 160.76C646.81 160.02 646.81 159.28 646.81 151.54V141.14C646.81 138.93 646.65 138.78 642.84 138.78H620.15Z" fill="#252423"/>
<path d="M308.22 179.01C314.74 173.94 323.05 171.44 332.34 171.44C337.16 171.44 343.95 172.42 348.15 173.58C349.22 173.85 349.85 174.03 350.65 173.94C350.74 175.99 351.19 181.59 351.9 187.02C351.45 187.64 350.11 187.73 349.49 187.2C348.15 181.15 344.13 174.2 331.18 174.2C317.51 174.2 305.9 182.84 305.9 201.26C305.9 219.95 317.78 230.28 332.43 230.28C343.95 230.28 349.05 222.8 351.1 217.55C351.73 217.11 353.07 217.28 353.42 217.91C352.8 222.54 350.47 228.41 349.13 230.11C348.06 230.29 346.99 230.64 346 231C344.03 231.71 337.6 233.05 331.89 233.05C323.85 233.05 316.17 231.45 309.65 227.09C302.5 222.19 296.96 214.1 296.96 202.61C296.96 192.72 301.43 184.26 308.22 179.01Z" fill="#252423"/>
<path d="M357.07 207.81C357.07 193.06 368.68 181.78 384.63 181.78C402.51 181.78 411.49 194.09 411.49 207.07C411.49 221.96 399.57 232.8 384.63 232.8C367.45 232.8 357.07 221.08 357.07 207.81ZM403.75 209.35C403.75 197.18 398.1 184.06 383.31 184.06C375.26 184.06 364.81 189.3 364.81 205.44C364.81 216.35 370.38 230.51 385.63 230.51C394.93 230.52 403.75 223.88 403.75 209.35Z" fill="#252423"/>
<path d="M498.84 201.47C498.84 196.9 498.68 188.42 497.35 186.21C496.8 185.32 495.4 184.81 493.44 184.66L491.49 184.51C491.02 183.99 491.18 183.04 491.64 182.74C494.61 182.89 497.5 182.96 500.55 182.96C503.83 182.96 505.94 182.88 508.76 182.74C509.38 183.11 509.31 184.07 508.92 184.51L507.04 184.66C505.09 184.81 503.6 185.47 503.13 186.43C502.04 188.86 502.04 197.34 502.04 201.47V209.8C502.04 216.22 500.94 223 496.57 227.42C493.21 230.89 487.43 232.8 481.64 232.8C476.25 232.8 470.85 231.84 467.02 228.75C462.88 225.51 460.92 220.12 460.92 211.35V193.95C460.92 186.28 460.76 185.03 456.23 184.66L454.27 184.51C453.8 184.22 453.96 182.96 454.42 182.74C458.33 182.89 460.99 182.96 464.11 182.96C467.31 182.96 469.89 182.88 473.72 182.74C474.19 182.96 474.35 184.21 473.88 184.51L472 184.66C467.47 185.03 467.31 186.28 467.31 193.95V209.88C467.31 221.75 471.22 229.57 483.18 229.57C494.51 229.57 498.81 221.16 498.81 209.96V201.47H498.84Z" fill="#252423"/>
<path d="M589.67 192.26C589.67 186.75 589.32 185.33 585.44 185.04L582.67 184.77C582.36 184.49 582.19 182.99 582.76 182.95C587.43 182.6 593.3 182.36 601.33 182.36C606.77 182.36 611.95 182.73 615.84 184.44C619.55 186.01 622.4 188.98 622.4 193.75C622.4 199.11 618.77 201.87 613.59 203.95C613.59 204.7 614.28 204.92 615.23 205.07C619.9 205.81 626.81 209.54 626.81 217.51C626.81 226.15 619.38 231.96 603.83 231.96C601.33 231.96 597.09 231.74 593.46 231.74C589.66 231.74 586.72 231.89 583.53 231.96C583.01 231.74 582.84 230.55 583.36 230.1L584.91 229.88C589.49 229.21 589.66 228.39 589.66 220.57V192.26H589.67ZM596.76 202.16C596.76 204.25 596.85 204.4 601.25 204.25C610.06 203.95 614.81 201.72 614.81 194.72C614.81 187.42 608.51 184.67 601.94 184.67C600.04 184.67 598.74 184.82 597.97 185.12C597.1 185.34 596.76 185.71 596.76 187.06V202.16ZM596.76 219.44C596.76 222.12 596.93 225.92 598.57 227.56C600.21 229.27 602.8 229.64 605.39 229.64C613.08 229.64 618.95 226.66 618.95 219.21C618.95 213.33 615.49 206.48 601.76 206.48C597.09 206.48 596.75 206.92 596.75 208.42V219.44H596.76Z" fill="#252423"/>
<path d="M448.91 160.97L446.86 160.79C446.45 160.75 446.08 160.69 445.73 160.64C442.74 160.11 441.54 157.44 440.13 154.97L433.05 142.65C431.83 140.6 430.52 137.83 427.72 137.44C434.97 136.57 441.53 132.38 441.53 125.2C441.53 116.9 433.32 113.19 425.01 113.19C420.03 113.19 415.49 113.32 410.42 113.32C407.63 113.32 404.3 113.19 401.5 113.19C399.95 113.19 399.93 113.51 399.93 114.37C399.93 115.65 400.47 115.29 402.12 115.39C408.02 115.72 407.8 116.82 407.8 121.88V154.19C407.8 158.81 408.2 160.19 403.34 160.63C403.34 160.63 402.6 160.71 402.17 160.75L400.11 160.96C399.62 161.4 399.78 162.58 400.27 162.8C401.36 162.76 403.3 162.68 403.3 162.68C405.99 162.6 408.68 162.4 411.36 162.4C414.06 162.4 416.65 162.61 419.31 162.69C420.25 162.72 421.25 162.75 422.34 162.79C422.83 162.57 423 161.39 422.5 160.95L420.43 160.75C420.01 160.71 419.28 160.64 419.28 160.64C414.38 160.31 414.68 158.93 414.68 154.18V142.01C414.68 141.3 414.59 139.4 415.12 138.85C415.56 138.37 416.34 138.45 417.04 138.45C423.68 138.45 423.59 139.08 426.74 144.61L435.3 160.01C436 161.2 436.52 162.7 438.27 162.7H445.71C446.65 162.73 447.63 162.76 448.72 162.8C449.23 162.59 449.4 161.41 448.91 160.97ZM419.08 136.74C417.59 136.74 414.62 137.29 414.62 135.32V121.18C414.62 115.65 414.8 114.86 421.44 114.86C429.22 114.86 434.02 118.81 434.02 126.08C434.02 129.24 432.88 132.16 430 134.14C426.68 136.43 423.1 136.74 419.08 136.74Z" fill="#252423"/>
<path d="M420.68 194.2C420.68 186.46 420.52 185.28 415.41 184.91L413.38 184.76C412.89 184.46 413.06 183.14 413.54 182.92C418.08 183.07 420.84 183.14 424.08 183.14C427.24 183.14 430 183.07 434.06 182.92C434.55 183.14 434.71 184.47 434.22 184.76L432.27 184.91C427.49 185.28 427.32 186.46 427.32 194.2V219.86C427.32 224.5 427.56 226.42 429.02 227.82C429.91 228.63 431.45 229.52 437.86 229.52C444.75 229.52 446.46 229.22 447.76 228.56C449.38 227.67 451.49 225.02 453.11 221.26C453.6 220.89 455.14 221.19 455.14 221.7C455.14 222.51 452.87 230.03 451.73 232.02C447.6 231.87 439.89 231.8 431.53 231.8H424.07C420.66 231.8 418.07 231.87 413.53 232.02C413.04 231.8 412.88 230.62 413.37 230.18L415.8 229.96C420.5 229.52 420.67 228.48 420.67 220.74V194.2H420.68Z" fill="#252423"/>
<path d="M637.95 194.34C637.95 186.53 637.79 185.27 633.09 184.9L631.1 184.75C630.62 184.45 630.78 183.13 631.26 182.91C635.24 183.06 637.95 183.13 641.29 183.13C644.48 183.13 647.18 183.06 651.17 182.91C651.65 183.13 651.81 184.46 651.33 184.75L649.34 184.9C644.64 185.27 644.48 186.52 644.48 194.34V220.59C644.48 228.41 644.64 229.44 649.34 229.95L651.33 230.17C651.81 230.47 651.65 231.79 651.17 232.01C647.19 231.86 644.48 231.79 641.29 231.79C637.94 231.79 635.24 231.86 631.26 232.01C630.78 231.79 630.62 230.61 631.1 230.17L633.09 229.95C637.79 229.43 637.95 228.4 637.95 220.59V194.34Z" fill="#252423"/>
<path d="M574.32 229.94C573.91 229.9 573.15 229.84 573.15 229.84C572.31 229.76 571.56 229.63 570.96 228.98C569.93 227.88 570.01 224.75 570.01 223.5V191.19C570.01 189.78 569.67 186.73 570.7 185.63C571.22 185.05 572.29 184.96 573.25 184.9C573.83 184.86 573.85 184.85 574.36 184.83L576.41 184.68C576.9 184.38 576.74 183.06 576.25 182.84C575.16 182.88 574.16 182.86 573.22 182.89H564.52C563.57 182.89 562.71 182.89 562.2 183.91L544.47 220.83L528.81 185.16C528.29 183.91 528.21 182.89 526.57 182.89H517.52C516.58 182.86 515.54 182.87 514.44 182.83C513.95 183.05 513.78 184.38 514.28 184.67L516.33 184.82C516.75 184.85 517.52 184.91 517.52 184.91C520.92 185.13 521.13 185.89 520.82 189.46L518.15 224.11C517.92 227.59 517.73 229.43 514.08 229.77C514.08 229.77 513.31 229.87 512.89 229.91L510.85 230.13C510.36 230.57 510.52 231.75 511.01 231.97C512.09 231.93 514.01 231.87 514.01 231.87C515.86 231.78 517.74 231.62 519.62 231.62C521.65 231.62 523.68 231.81 525.72 231.89C526.66 231.92 527.66 231.95 528.75 231.99C529.24 231.77 529.41 230.59 528.91 230.15L526.87 229.93C526.33 229.89 525.73 229.83 525.73 229.83C520.47 229.47 520.59 225.76 520.92 221.21L523.42 188.98H524.02L540.97 228.64C541.14 229.19 541.4 230.13 542.26 230.13C543.04 230.13 543.29 229.27 543.55 228.72L562.65 188.04H563.25V223.48C563.25 224.89 563.42 227.78 561.96 228.88C561.2 229.45 558.71 229.79 558.71 229.79C558.37 229.84 558.01 229.89 557.6 229.94L555.56 230.16C555.07 230.6 555.23 231.78 555.72 232C556.8 231.96 558.71 231.9 558.71 231.9C561.48 231.82 564.3 231.62 567.12 231.62C569.15 231.62 573.12 231.81 573.12 231.81C574.07 231.84 575.14 231.94 576.24 231.98C576.73 231.76 576.9 230.58 576.4 230.14L574.32 229.94Z" fill="#252423"/>
<path d="M707.29 230.14L707.01 229.92C706.6 229.88 706.24 229.83 705.9 229.77C702.71 229.06 701.47 225.22 700.29 222.48L683.88 183.65C683.72 183.18 683.39 182.18 682.74 182.18C681.85 182.18 681.6 183.26 681.36 183.88L665.68 222.64C665.11 224.11 663.65 227.67 662.59 228.75C661.78 229.58 660.73 229.74 659.6 229.85C659.6 229.85 658.72 229.93 658.29 229.98L656.36 230.18C655.87 230.62 656.03 231.8 656.52 232.02C657.61 231.98 659.55 231.91 659.55 231.91C661.69 231.88 663.84 231.61 665.99 231.61C667.8 231.61 669.6 231.8 671.4 231.88C671.4 231.88 673.34 231.95 674.43 231.99C674.92 231.77 675.08 230.59 674.59 230.15L672.54 229.93C672.13 229.89 671.43 229.82 671.43 229.82C669.54 229.61 667.19 229.27 667.19 227.2C667.19 225.81 667.84 224.18 668.33 222.95L670.77 217.15C671.99 214.37 671.5 214.05 674.75 214.05H685.8C689.7 214.05 689.13 214.05 690.84 218L693.44 223.88C693.85 224.89 694.58 226.59 694.58 227.67C694.58 229.61 692.46 229.74 690.47 229.91C690.47 229.91 689.81 229.97 689.24 230.01L687.27 230.15C686.78 230.59 686.94 231.77 687.44 231.99C688.53 231.95 690.47 231.87 690.47 231.87C692.78 231.79 695.11 231.61 697.34 231.61C700.19 231.61 703.03 231.8 705.88 231.88C706.81 231.91 706.02 231.94 707.1 231.98C707.62 231.76 707.78 230.58 707.29 230.14ZM685.8 211.89H676.23C675.9 211.89 673.23 212.2 673.23 211.42C673.23 211.18 673.4 210.72 673.48 210.48L679.23 196.25C679.4 195.86 679.98 193.9 680.64 193.9C681.14 193.9 681.81 195.93 681.97 196.25L687.63 209.54C687.63 209.7 688.21 210.95 688.21 211.26C688.21 212.12 686.3 211.89 685.8 211.89Z" fill="#252423"/>
<path d="M226.05 176.17L231.42 178.4L243.35 170.08L226.05 176.17Z" fill="#9F9D9C"/>
<path d="M25.61 166.88L11.47 161.91L12.18 160.18L28.1 165.49L28.17 165.45L30.27 164.26L31.11 163.73L13.75 156.34L14.48 154.52L53.23 170.19L54.51 169.66L16.07 150.93L16.93 149.17L57.66 168.13L58.22 167.84L18.73 145.44L19.54 143.76L76.57 174.79C77.04 173.93 78.01 172.35 78.52 171.51C56.84 151.12 35.91 135.82 35.91 135.82C35.91 135.82 57.44 150.23 84 163.63C84.88 162.54 85.6 161.66 86.53 160.62L37.88 117.79L39.19 116.45L78.46 149.92L42.08 113.49L43.44 112.08L84.28 151.55L46.26 109.35L47.71 108.04L82.85 145.67L50.78 105.26L52.16 104L93.27 154.03C94.33 153.11 95.22 152.42 96.33 151.57C83.89 124.66 70.31 102.77 70.31 102.77C70.31 102.77 84.77 124.05 104.27 146.33C105.46 145.66 106.67 145.02 107.9 144.41L107.69 144.28L78.88 86.78L80.59 86.03L104.46 131.77L84.39 84.35L86.18 83.55L109.26 135.45L89.82 82.08L91.66 81.41L110.15 129.46L95.55 79.97L97.3 79.32L116.52 140.7L116.48 140.86L116.53 140.84C117.81 140.41 119.11 140.03 120.42 139.68C118.96 110.2 114.6 84.98 114.6 84.98C114.6 84.98 120 109.98 129.68 137.85C131.03 137.68 132.39 137.54 133.75 137.45L133.71 137.39H133.88L133.78 137.25L128.61 73.14L130.48 73.08L135.48 124.43L134.62 72.95L136.58 72.88L138.54 129.65L140.5 72.88L142.46 72.95L141.6 124.43L146.6 73.08L148.47 73.14L143.3 137.25L143.2 137.39H143.23L143.22 137.41H143.3C144.64 137.49 145.97 137.63 147.28 137.79C156.95 109.95 162.34 84.99 162.34 84.99C162.34 84.99 157.99 110.13 156.52 139.56C157.84 139.91 159.15 140.29 160.43 140.71L179.58 79.55L181.34 80.2L166.74 129.68L185.23 81.63L187.07 82.3L167.62 135.67L190.7 83.77L192.49 84.57L172.41 131.98L196.28 86.24L197.99 86.99L169.28 144.29L169.33 144.31C170.51 144.89 171.67 145.5 172.82 146.14C192.24 123.93 206.61 102.77 206.61 102.77C206.61 102.77 193.12 124.51 180.72 151.29C181.83 152.13 182.91 152.99 183.96 153.89L224.59 104.4L225.98 105.66L193.9 146.07L229.04 108.44L230.49 109.75L192.47 151.95L233.31 112.48L234.67 113.89L198.29 150.32L237.56 116.85L238.87 118.19L190.81 160.54L190.84 160.57C191.68 161.51 192.49 162.47 193.28 163.45C219.67 150.11 240.99 135.83 240.99 135.83C240.99 135.83 220.27 150.99 198.7 171.23C199.29 172.22 200.25 173.9 200.79 174.92L257 144.29L257.81 145.97L212.93 171.42L259.61 149.7L260.47 151.46L217 172.66L217.83 172.95L262.07 155.06L262.81 156.88L221.69 174.37L222.46 174.69L249.86 165.56L253.99 162.68L255.36 163.73L264.38 160.72L265.09 162.45L257.29 165.2L268.56 173.8L272.17 175.81C257.68 115.23 203.19 70.19 138.17 70.19C72 70.18 16.74 116.81 3.42999 179C3.59999 178.92 3.76999 178.84 3.93999 178.76L5.58999 178.01L6.59999 177.54L25.61 166.88Z" fill="#9F9D9C"/>
<path d="M2.66 233.02C2.66 233.02 22.98 228.96 39.95 228.96C84.65 228.96 146.49 254.13 191.36 254.13C224.27 254.13 256.38 245.1 273.87 231.94C275.24 224.15 275.95 216.14 275.95 207.96C275.95 196.88 274.63 186.11 272.16 175.79L253.46 165.36L231.51 180.75L216.75 175C211.75 177.53 180.92 198.15 180.92 198.15L169.08 189.58L156.38 187.07L139.45 174.74L120.03 188.07C120.03 188.07 98.36 200.65 97.62 200.65C96.87 200.65 71.48 180.52 71.48 180.52L59.78 168.19C57.79 169.45 49.83 173.1 49.83 173.1L49.42 173.21L41.72 170.83L32.37 165.87L3.94 178.75C3.77 178.83 3.6 178.91 3.43 178.99C1.43 188.33 0.369995 198.02 0.369995 207.95C0.379995 216.52 1.16 224.9 2.66 233.02Z" fill="#252423"/>
</g>
<defs>
<clipPath id="clip0_117_130">
<rect width="777.81" height="327.01" fill="white"/>
</clipPath>
</defs>
</svg>
