<?xml version="1.0" encoding="UTF-8" standalone="no"?>
<!-- Created with Inkscape (http://www.inkscape.org/) -->

<svg
   version="1.1"
   id="svg2"
   width="1130.196"
   height="436.01468"
   viewBox="0 0 1130.196 436.01468"
   sodipodi:docname="BCID_H_rgb_pos 1.ai"
   xmlns:inkscape="http://www.inkscape.org/namespaces/inkscape"
   xmlns:sodipodi="http://sodipodi.sourceforge.net/DTD/sodipodi-0.dtd"
   xmlns="http://www.w3.org/2000/svg"
   xmlns:svg="http://www.w3.org/2000/svg">
  <defs
     id="defs6">
    <clipPath
       clipPathUnits="userSpaceOnUse"
       id="clipPath16">
      <path
         d="M 0,327.011 H 847.647 V 0 H 0 Z"
         id="path14" />
    </clipPath>
  </defs>
  <sodipodi:namedview
     id="namedview4"
     pagecolor="#ffffff"
     bordercolor="#000000"
     borderopacity="0.25"
     inkscape:showpageshadow="2"
     inkscape:pageopacity="0.0"
     inkscape:pagecheckerboard="0"
     inkscape:deskcolor="#d1d1d1" />
  <g
     id="g8"
     inkscape:groupmode="layer"
     inkscape:label="BCID_H_rgb_pos 1"
     transform="matrix(1.3333333,0,0,-1.3333333,0,436.01467)">
    <g
       id="g10">
      <g
         id="g12"
         clip-path="url(#clipPath16)">
        <g
           id="g18"
           transform="translate(109.5903,100.6923)">
          <path
             d="m 0,0 c 44.702,0 106.539,-25.17 151.407,-25.17 32.018,0 63.261,8.545 81.044,21.127 1.242,7.389 1.9,14.975 1.9,22.717 0,75.13 -60.907,136.035 -136.037,136.035 -75.13,0 -136.036,-60.905 -136.036,-136.035 0,-7.653 0.642,-15.153 1.857,-22.461 C -30.962,-2.879 -14.291,0 0,0"
             style="fill:#ffffff;fill-opacity:1;fill-rule:nonzero;stroke:none"
             id="path20" />
        </g>
        <path
           d="M 730.061,74.035 H 415.397 V 70.22 h 314.664 z"
           style="fill:#e3a82b;fill-opacity:1;fill-rule:nonzero;stroke:none"
           id="path22" />
        <g
           id="g24"
           transform="translate(431.3223,178.8662)">
          <path
             d="m 0,0 c 0,-3.108 0.191,-7.509 2.012,-9.409 1.821,-1.985 4.696,-2.416 7.57,-2.416 8.526,0 15.041,3.451 15.041,12.083 0,6.819 -3.832,14.761 -19.065,14.761 C 0.384,15.019 0,14.501 0,12.775 Z m 0,20.026 c 0,-2.419 0.096,-2.59 4.982,-2.419 9.772,0.347 15.043,2.937 15.043,11.05 0,8.459 -6.996,11.653 -14.275,11.653 -2.109,0 -3.547,-0.173 -4.408,-0.518 C 0.384,39.533 0,39.1 0,37.549 Z m -7.856,11.479 c 0,6.387 -0.451,8.079 -4.762,8.426 l -2.999,0.206 c -0.488,0.388 -0.35,2.118 0.096,2.158 5.171,0.461 11.689,0.69 20.599,0.69 6.036,0 11.785,-0.431 16.098,-2.416 4.119,-1.813 7.281,-5.265 7.281,-10.789 0,-6.216 -4.025,-9.41 -9.773,-11.826 0,-0.863 0.767,-1.123 1.82,-1.294 5.174,-0.865 12.838,-5.18 12.838,-14.416 0,-10.013 -8.238,-16.746 -25.486,-16.746 -2.778,0 -7.472,0.26 -11.497,0.26 -4.215,0 -7.472,-0.175 -11.018,-0.26 -0.575,0.26 -0.767,1.64 -0.192,2.159 l 1.726,0.259 c 5.076,0.777 5.269,1.726 5.269,10.789 z"
             style="fill:#234075;fill-opacity:1;fill-rule:nonzero;stroke:none"
             id="path26" />
        </g>
        <g
           id="g28"
           transform="translate(531.2578,201.875)">
          <path
             d="m 0,0 c 0,7.815 -0.164,9.068 -4.992,9.436 l -2.047,0.148 c -0.492,0.295 -0.326,1.623 0.164,1.844 4.092,-0.147 6.875,-0.221 10.311,-0.221 3.275,0 6.056,0.074 10.148,0.221 0.492,-0.221 0.654,-1.549 0.164,-1.844 L 11.703,9.436 C 6.873,9.068 6.711,7.815 6.711,0 v -26.249 c 0,-7.814 0.162,-8.847 4.992,-9.364 l 2.045,-0.22 c 0.49,-0.295 0.328,-1.621 -0.164,-1.843 -4.092,0.148 -6.873,0.222 -10.148,0.222 -3.436,0 -6.219,-0.074 -10.311,-0.222 -0.49,0.222 -0.656,1.401 -0.164,1.843 l 2.047,0.22 c 4.828,0.517 4.992,1.55 4.992,9.364 z"
             style="fill:#234075;fill-opacity:1;fill-rule:nonzero;stroke:none"
             id="path30" />
        </g>
        <g
           id="g32"
           transform="translate(576.6602,175.4785)">
          <path
             d="m 0,0 c 0,-7.741 0.152,-8.847 4.602,-9.216 l 2.453,-0.221 c 0.459,-0.294 0.306,-1.62 -0.153,-1.843 -4.371,0.148 -6.978,0.223 -10.047,0.223 -3.066,0 -5.75,-0.075 -10.656,-0.223 -0.461,0.223 -0.615,1.474 0,1.843 l 2.76,0.221 c 4.371,0.369 4.752,1.475 4.752,9.216 v 32.959 c 0,2.285 0,2.357 -2.299,2.357 h -4.217 c -3.297,0 -7.513,-0.147 -9.431,-1.842 -1.84,-1.622 -2.608,-3.245 -3.45,-5.087 -0.615,-0.443 -1.687,-0.074 -1.994,0.516 1.225,3.317 2.377,8.036 2.912,10.985 0.233,0.147 1.229,0.221 1.457,0 0.461,-2.358 2.993,-2.285 6.52,-2.285 h 31.053 c 4.14,0 4.83,0.147 5.98,2.064 0.385,0.147 1.229,0.073 1.381,-0.22 -0.844,-3.025 -1.381,-8.996 -1.15,-11.208 -0.307,-0.59 -1.61,-0.59 -1.993,-0.148 -0.23,1.845 -0.767,4.572 -1.918,5.383 -1.763,1.255 -4.675,1.842 -8.894,1.842 H 2.225 C -0.076,35.316 0,35.244 0,32.811 Z"
             style="fill:#234075;fill-opacity:1;fill-rule:nonzero;stroke:none"
             id="path34" />
        </g>
        <g
           id="g36"
           transform="translate(609.5254,201.875)">
          <path
             d="m 0,0 c 0,7.815 -0.164,9.068 -4.992,9.436 l -2.047,0.148 c -0.49,0.295 -0.326,1.623 0.164,1.844 4.092,-0.147 6.875,-0.221 10.313,-0.221 3.273,0 6.054,0.074 10.146,0.221 0.492,-0.221 0.656,-1.549 0.166,-1.844 L 11.701,9.436 C 6.873,9.068 6.711,7.815 6.711,0 v -26.249 c 0,-7.814 0.162,-8.847 4.99,-9.364 l 2.049,-0.22 c 0.49,-0.295 0.326,-1.621 -0.166,-1.843 -4.092,0.148 -6.873,0.222 -10.146,0.222 -3.438,0 -6.221,-0.074 -10.313,-0.222 -0.49,0.222 -0.654,1.401 -0.164,1.843 l 2.047,0.22 c 4.828,0.517 4.992,1.55 4.992,9.364 z"
             style="fill:#234075;fill-opacity:1;fill-rule:nonzero;stroke:none"
             id="path38" />
        </g>
        <g
           id="g40"
           transform="translate(646.1992,163.4438)">
          <path
             d="m 0,0 c -7.309,0 -11.92,1.917 -13.572,2.727 -1.045,1.623 -2.176,6.857 -2.35,10.323 0.436,0.516 1.74,0.663 2.088,0.221 1.307,-3.76 4.873,-10.984 14.965,-10.984 7.308,0 10.875,4.054 10.875,8.478 0,3.243 -0.783,6.856 -7.135,10.322 l -8.264,4.572 c -4.349,2.432 -9.396,6.635 -9.396,12.68 0,7.005 6.437,12.682 17.748,12.682 2.695,0 5.828,-0.442 8.09,-0.958 1.131,-0.295 2.349,-0.442 3.045,-0.442 0.783,-1.772 1.568,-5.9 1.568,-8.996 -0.35,-0.443 -1.742,-0.663 -2.176,-0.221 -1.131,3.538 -3.48,8.331 -11.832,8.331 -8.527,0 -10.353,-4.793 -10.353,-8.183 0,-4.277 4.176,-7.375 7.394,-9.07 L 7.654,27.796 C 13.137,24.921 18.531,20.645 18.531,13.64 18.531,5.53 11.311,0 0,0"
             style="fill:#234075;fill-opacity:1;fill-rule:nonzero;stroke:none"
             id="path42" />
        </g>
        <g
           id="g44"
           transform="translate(689.9883,188.2348)">
          <path
             d="m 0,0 c -3.807,0 -3.965,-0.147 -3.965,-2.359 v -10.397 c 0,-7.741 0.397,-8.774 4.84,-9.217 l 2.299,-0.22 c 0.476,-0.295 0.318,-1.62 -0.158,-1.843 -4.284,0.148 -6.981,0.223 -10.077,0.223 -3.412,0 -6.109,-0.148 -9.203,-0.223 -0.474,0.223 -0.634,1.401 -0.158,1.843 l 1.348,0.22 c 4.445,0.738 4.601,1.476 4.601,9.217 v 26.543 c 0,7.742 -0.552,8.994 -4.679,9.289 l -2.063,0.148 c -0.476,0.295 -0.318,1.623 0.158,1.844 3.887,-0.074 6.584,-0.221 9.996,-0.221 3.096,0 5.793,0.074 9.204,0.221 0.476,-0.221 0.634,-1.549 0.16,-1.844 l -1.51,-0.148 c -4.6,-0.442 -4.758,-1.547 -4.758,-9.289 V 5.309 c 0,-2.285 0.158,-2.36 3.965,-2.36 h 22.691 c 3.809,0 3.967,0.075 3.967,2.36 v 8.478 c 0,7.742 -0.158,8.847 -4.838,9.289 l -1.508,0.148 c -0.476,0.295 -0.318,1.623 0.159,1.844 3.65,-0.147 6.347,-0.221 9.599,-0.221 3.094,0 5.791,0.074 9.362,0.221 0.476,-0.221 0.634,-1.549 0.158,-1.844 l -1.664,-0.148 c -4.602,-0.442 -4.762,-1.547 -4.762,-9.289 v -26.543 c 0,-7.741 0.16,-8.7 4.762,-9.217 l 1.904,-0.22 c 0.475,-0.295 0.316,-1.62 -0.158,-1.843 -3.811,0.148 -6.508,0.223 -9.602,0.223 -3.252,0 -6.109,-0.075 -9.599,-0.223 -0.477,0.223 -0.635,1.401 -0.159,1.843 l 1.508,0.22 c 4.838,0.738 4.838,1.476 4.838,9.217 V -2.359 C 26.658,-0.147 26.5,0 22.691,0 Z"
             style="fill:#234075;fill-opacity:1;fill-rule:nonzero;stroke:none"
             id="path46" />
        </g>
        <g
           id="g48"
           transform="translate(378.0591,147.999)">
          <path
             d="m 0,0 c 6.521,5.073 14.829,7.565 24.12,7.565 4.823,0 11.611,-0.978 15.811,-2.136 1.072,-0.267 1.697,-0.446 2.501,-0.356 0.089,-2.048 0.536,-7.654 1.25,-13.085 -0.446,-0.623 -1.786,-0.713 -2.411,-0.179 -1.34,6.053 -5.36,12.998 -18.313,12.998 -13.668,0 -25.281,-8.636 -25.281,-27.062 0,-18.693 11.881,-29.02 26.531,-29.02 11.523,0 16.616,7.478 18.67,12.731 0.626,0.443 1.967,0.267 2.323,-0.357 -0.624,-4.629 -2.948,-10.503 -4.288,-12.196 -1.072,-0.178 -2.143,-0.534 -3.126,-0.888 -1.966,-0.715 -8.397,-2.049 -14.115,-2.049 -8.039,0 -15.721,1.601 -22.243,5.965 -7.147,4.896 -12.685,12.994 -12.685,24.477 0,9.883 4.467,18.339 11.256,23.592"
             style="fill:#234075;fill-opacity:1;fill-rule:nonzero;stroke:none"
             id="path50" />
        </g>
        <g
           id="g52"
           transform="translate(473.5957,117.6562)">
          <path
             d="m 0,0 c 0,12.166 -5.65,25.29 -20.437,25.29 -8.051,0 -18.501,-5.235 -18.501,-21.383 0,-10.911 5.573,-25.068 20.823,-25.068 C -8.824,-21.161 0,-14.525 0,0 m -46.681,1.549 c 0,14.746 11.613,26.026 27.561,26.026 17.882,0 26.862,-12.312 26.862,-25.289 0,-14.894 -11.922,-25.732 -26.862,-25.732 -17.186,0 -27.561,11.724 -27.561,24.995"
             style="fill:#234075;fill-opacity:1;fill-rule:nonzero;stroke:none"
             id="path54" />
        </g>
        <g
           id="g56"
           transform="translate(568.6777,125.5449)">
          <path
             d="m 0,0 c 0,4.571 -0.156,13.052 -1.486,15.262 -0.547,0.885 -1.953,1.402 -3.907,1.55 l -1.953,0.147 c -0.468,0.516 -0.314,1.474 0.155,1.77 2.97,-0.147 5.863,-0.222 8.91,-0.222 3.283,0 5.394,0.075 8.207,0.22 0.625,-0.369 0.547,-1.326 0.156,-1.768 L 8.205,16.812 C 6.252,16.664 4.766,16 4.299,15.041 3.205,12.609 3.205,4.129 3.205,0 v -8.331 c 0,-6.416 -1.096,-13.198 -5.471,-17.621 -3.361,-3.466 -9.144,-5.383 -14.927,-5.383 -5.393,0 -10.786,0.959 -14.616,4.055 -4.142,3.243 -6.095,8.626 -6.095,17.399 V 7.521 c 0,7.667 -0.157,8.921 -4.688,9.291 l -1.955,0.147 c -0.469,0.295 -0.314,1.547 0.154,1.77 3.911,-0.147 6.567,-0.222 9.694,-0.222 3.203,0 5.783,0.075 9.611,0.22 0.469,-0.221 0.627,-1.473 0.158,-1.768 l -1.877,-0.147 c -4.533,-0.37 -4.689,-1.624 -4.689,-9.291 V -8.405 c 0,-11.87 3.908,-19.687 15.865,-19.687 C -4.299,-28.092 0,-19.685 0,-8.48 Z"
             style="fill:#234075;fill-opacity:1;fill-rule:nonzero;stroke:none"
             id="path58" />
        </g>
        <g
           id="g60"
           transform="translate(666.5996,107.5742)">
          <path
             d="m 0,0 c 0,-2.681 0.172,-6.478 1.812,-8.117 1.643,-1.713 4.235,-2.085 6.825,-2.085 7.689,0 13.562,2.979 13.562,10.426 0,5.883 -3.455,12.732 -17.189,12.732 C 0.344,12.956 0,12.512 0,11.021 Z m 0,17.278 c 0,-2.087 0.086,-2.235 4.49,-2.087 8.813,0.298 13.563,2.532 13.563,9.533 0,7.298 -6.305,10.054 -12.871,10.054 -1.901,0 -3.196,-0.149 -3.973,-0.448 C 0.344,34.107 0,33.735 0,32.395 Z m -7.084,9.903 c 0,5.511 -0.346,6.926 -4.232,7.223 l -2.766,0.269 c -0.314,0.284 -0.482,1.776 0.086,1.818 4.666,0.349 10.539,0.594 18.574,0.594 5.442,0 10.623,-0.372 14.512,-2.083 3.715,-1.565 6.564,-4.544 6.564,-9.311 0,-5.36 -3.629,-8.117 -8.81,-10.202 0,-0.745 0.689,-0.968 1.64,-1.117 4.666,-0.744 11.577,-4.469 11.577,-12.435 0,-8.638 -7.43,-14.447 -22.979,-14.447 -2.504,0 -6.738,0.223 -10.365,0.223 -3.801,0 -6.738,-0.148 -9.934,-0.223 -0.519,0.223 -0.693,1.414 -0.174,1.86 l 1.555,0.224 c 4.58,0.67 4.752,1.49 4.752,9.308 z"
             style="fill:#234075;fill-opacity:1;fill-rule:nonzero;stroke:none"
             id="path62" />
        </g>
        <g
           id="g64"
           transform="translate(488.9199,190.269)">
          <path
             d="m 0,0 c -1.486,0 -4.457,-0.553 -4.457,1.42 v 14.143 c 0,5.529 0.176,6.32 6.816,6.32 7.776,0 12.582,-3.949 12.582,-11.217 0,-3.161 -1.136,-6.084 -4.019,-8.059 C 7.602,0.315 4.018,0 0,0 m 29.828,-24.228 -2.047,0.177 c -0.414,0.044 -0.781,0.096 -1.131,0.154 -2.994,0.53 -4.193,3.196 -5.603,5.67 l -7.076,12.325 c -1.223,2.054 -2.533,4.819 -5.33,5.213 7.252,0.87 13.806,5.056 13.806,12.245 0,8.297 -8.215,12.009 -16.515,12.009 -4.981,0 -9.52,-0.135 -14.588,-0.135 -2.795,0 -6.121,0.135 -8.916,0.135 -1.553,0 -1.573,-0.316 -1.573,-1.185 0,-1.282 0.541,-0.923 2.186,-1.016 5.904,-0.332 5.678,-1.433 5.678,-6.489 v -32.313 c 0,-4.624 0.4,-6.005 -4.455,-6.44 0,0 -0.744,-0.077 -1.166,-0.122 l -2.057,-0.211 c -0.492,-0.441 -0.326,-1.621 0.164,-1.842 1.094,0.04 3.033,0.116 3.033,0.116 2.688,0.08 5.375,0.285 8.063,0.285 2.703,0 5.289,-0.208 7.947,-0.286 v -0.002 c 0.943,-0.03 1.94,-0.063 3.031,-0.102 0.492,0.221 0.657,1.4 0.164,1.842 l -2.07,0.196 c -0.422,0.045 -1.148,0.11 -1.148,0.11 -4.903,0.332 -4.602,1.715 -4.602,6.456 v 12.167 c 0,0.711 -0.09,2.606 0.436,3.16 0.437,0.476 1.222,0.396 1.921,0.396 6.643,0 6.553,-0.633 9.7,-6.163 l 8.562,-15.405 c 0.699,-1.186 1.223,-2.686 2.973,-2.686 h 7.437 c 0.938,-0.03 1.924,-0.061 3.012,-0.101 0.49,0.221 0.654,1.401 0.164,1.842"
             style="fill:#234075;fill-opacity:1;fill-rule:nonzero;stroke:none"
             id="path66" />
        </g>
        <g
           id="g68"
           transform="translate(490.5234,132.8154)">
          <path
             d="m 0,0 c 0,7.741 -0.162,8.923 -5.27,9.291 l -2.029,0.147 c -0.486,0.295 -0.324,1.621 0.162,1.844 4.543,-0.148 7.299,-0.221 10.543,-0.221 3.164,0 5.92,0.073 9.977,0.218 0.486,-0.22 0.648,-1.546 0.162,-1.841 L 11.598,9.291 C 6.814,8.923 6.65,7.741 6.65,0 v -25.659 c 0,-4.645 0.245,-6.562 1.704,-7.962 0.892,-0.81 2.433,-1.696 8.839,-1.696 6.895,0 8.598,0.296 9.897,0.958 1.621,0.886 3.73,3.539 5.351,7.3 0.489,0.367 2.028,0.075 2.028,-0.442 0,-0.812 -2.272,-8.333 -3.407,-10.322 -4.134,0.147 -11.841,0.221 -20.195,0.221 H 3.406 c -3.406,0 -6,-0.074 -10.543,-0.221 -0.486,0.221 -0.648,1.401 -0.162,1.843 l 2.434,0.22 C -0.162,-35.317 0,-34.284 0,-26.544 Z"
             style="fill:#234075;fill-opacity:1;fill-rule:nonzero;stroke:none"
             id="path70" />
        </g>
        <g
           id="g72"
           transform="translate(707.7871,132.6689)">
          <path
             d="M 0,0 C 0,7.814 -0.158,9.069 -4.855,9.438 L -6.848,9.584 C -7.324,9.88 -7.166,11.205 -6.686,11.429 -2.707,11.28 0,11.207 3.346,11.207 c 3.185,0 5.892,0.073 9.875,0.219 0.476,-0.221 0.636,-1.546 0.158,-1.842 L 11.387,9.438 C 6.689,9.069 6.531,7.814 6.531,0 v -26.25 c 0,-7.815 0.158,-8.847 4.856,-9.363 l 1.992,-0.221 c 0.478,-0.295 0.318,-1.621 -0.158,-1.843 -3.983,0.148 -6.69,0.222 -9.875,0.222 -3.346,0 -6.053,-0.074 -10.032,-0.222 -0.48,0.222 -0.638,1.402 -0.162,1.843 l 1.993,0.221 C -0.158,-35.097 0,-34.065 0,-26.25 Z"
             style="fill:#234075;fill-opacity:1;fill-rule:nonzero;stroke:none"
             id="path74" />
        </g>
        <g
           id="g76"
           transform="translate(644.1582,97.0732)">
          <path
             d="M 0,0 C -0.408,0.044 -1.172,0.104 -1.172,0.104 -2.01,0.188 -2.764,0.309 -3.359,0.959 -4.393,2.057 -4.307,5.185 -4.307,6.437 v 32.307 c 0,1.409 -0.343,4.459 0.69,5.556 0.517,0.577 1.592,0.674 2.549,0.728 v 0.004 c 0.582,0.044 0.595,0.046 1.105,0.071 l 2.047,0.146 C 2.574,45.545 2.41,46.871 1.92,47.093 0.826,47.055 -0.168,47.069 -1.113,47.04 v -0.004 h -8.7 c -0.947,0 -1.808,0 -2.324,-1.017 L -29.863,9.096 -45.521,44.767 c -0.518,1.252 -0.602,2.269 -2.239,2.269 h -9.054 c -0.944,0.029 -1.985,0.019 -3.079,0.057 -0.49,-0.222 -0.656,-1.548 -0.164,-1.844 l 2.047,-0.146 c 0.422,-0.034 1.186,-0.086 1.186,-0.086 3.396,-0.218 3.607,-0.977 3.299,-4.552 L -56.193,5.812 c -0.233,-3.48 -0.424,-5.319 -4.069,-5.658 0,0 -0.769,-0.096 -1.193,-0.141 L -63.5,-0.209 c -0.492,-0.44 -0.328,-1.62 0.164,-1.841 1.078,0.04 2.996,0.096 2.996,0.096 1.848,0.091 3.729,0.255 5.611,0.255 2.03,0 4.063,-0.192 6.096,-0.273 v -0.004 c 0.942,-0.029 1.938,-0.062 3.031,-0.1 0.493,0.221 0.657,1.4 0.164,1.842 l -2.044,0.221 c -0.539,0.042 -1.143,0.102 -1.143,0.102 -5.26,0.36 -5.143,4.073 -4.814,8.615 l 2.496,32.229 h 0.603 l 16.951,-39.66 c 0.17,-0.547 0.428,-1.486 1.289,-1.486 0.776,0 1.034,0.859 1.291,1.409 l 19.102,40.679 h 0.603 V 6.437 c 0,-1.408 0.172,-4.303 -1.291,-5.397 -0.763,-0.569 -3.25,-0.911 -3.25,-0.911 -0.341,-0.054 -0.701,-0.104 -1.109,-0.147 l -2.045,-0.22 c -0.492,-0.442 -0.328,-1.621 0.164,-1.843 1.078,0.039 2.99,0.099 2.99,0.099 2.774,0.077 5.592,0.283 8.413,0.283 2.027,0 5.998,-0.193 5.998,-0.193 0.945,-0.029 2.023,-0.132 3.117,-0.171 0.492,0.221 0.656,1.4 0.164,1.841 z"
             style="fill:#234075;fill-opacity:1;fill-rule:nonzero;stroke:none"
             id="path78" />
        </g>
        <g
           id="g80"
           transform="translate(755.6387,115.123)">
          <path
             d="m 0,0 h -9.574 c -0.334,0 -2.998,-0.313 -2.998,0.468 0,0.235 0.166,0.704 0.25,0.937 l 5.746,14.228 c 0.166,0.391 0.748,2.346 1.414,2.346 0.5,0 1.166,-2.033 1.332,-2.346 L 1.832,2.345 C 1.832,2.188 2.414,0.937 2.414,0.624 2.414,-0.236 0.5,0 0,0 m 21.494,-18.25 -0.275,0.221 c -0.408,0.043 -0.772,0.092 -1.114,0.149 -3.189,0.712 -4.431,4.552 -5.609,7.288 L -1.912,28.242 c -0.164,0.466 -0.488,1.471 -1.139,1.471 -0.894,0 -1.136,-1.083 -1.381,-1.7 l -15.675,-38.76 c -0.571,-1.47 -2.032,-5.031 -3.088,-6.111 -0.809,-0.829 -1.864,-0.988 -2.987,-1.104 0,0 -0.884,-0.084 -1.306,-0.13 l -1.928,-0.196 c -0.49,-0.441 -0.326,-1.621 0.164,-1.843 1.094,0.039 3.033,0.11 3.033,0.11 2.145,0.029 4.289,0.3 6.436,0.3 1.806,0 3.611,-0.192 5.414,-0.272 0,0 1.939,-0.069 3.033,-0.111 0.49,0.223 0.654,1.403 0.164,1.844 l -2.047,0.222 c -0.406,0.042 -1.109,0.108 -1.109,0.108 -1.887,0.209 -4.236,0.546 -4.236,2.62 0,1.392 0.65,3.017 1.136,4.255 l 2.436,5.8 c 1.221,2.784 0.732,3.096 3.98,3.096 H 0.037 c 3.899,0 3.328,0 5.037,-3.948 l 2.598,-5.876 c 0.406,-1.008 1.137,-2.709 1.137,-3.795 0,-1.943 -2.123,-2.071 -4.106,-2.239 0,0 -0.658,-0.055 -1.228,-0.099 l -1.969,-0.143 c -0.49,-0.441 -0.326,-1.621 0.166,-1.843 1.092,0.04 3.031,0.119 3.031,0.119 2.311,0.084 4.637,0.262 6.867,0.262 2.846,0 5.692,-0.193 8.535,-0.274 v 0.003 c 0.934,-0.029 0.145,-0.062 1.225,-0.101 0.49,0.222 0.654,1.402 0.164,1.843"
             style="fill:#234075;fill-opacity:1;fill-rule:nonzero;stroke:none"
             id="path82" />
        </g>
        <g
           id="g84"
           transform="translate(295.8857,150.8408)">
          <path
             d="M 0,0 5.379,-2.23 17.308,6.09 Z"
             style="fill:#e3a82b;fill-opacity:1;fill-rule:nonzero;stroke:none"
             id="path86" />
        </g>
        <g
           id="g88"
           transform="translate(95.4546,160.1318)">
          <path
             d="m 0,0 -14.139,4.975 0.709,1.732 15.923,-5.309 0.069,0.039 2.101,1.191 0.838,0.525 -17.363,7.386 0.734,1.816 38.754,-15.674 1.278,0.53 -38.435,18.73 0.857,1.76 40.73,-18.956 0.563,0.286 -39.492,22.4 0.811,1.682 57.029,-31.031 c 0.467,0.863 1.445,2.436 1.947,3.282 -21.682,20.386 -42.605,35.692 -42.605,35.692 0,0 21.517,-14.41 48.073,-27.807 0.877,1.095 1.597,1.974 2.534,3.013 l -48.652,42.832 1.306,1.341 39.267,-33.467 -36.379,36.431 1.362,1.41 40.844,-39.473 -38.02,42.199 1.454,1.311 35.14,-37.628 -32.073,40.412 1.381,1.256 41.112,-50.032 c 1.063,0.917 1.946,1.607 3.058,2.459 -12.436,26.912 -26.017,48.804 -26.017,48.804 0,0 14.455,-21.278 33.958,-43.562 1.191,0.671 2.399,1.314 3.633,1.919 l -0.207,0.134 -28.812,57.501 1.713,0.753 23.871,-45.738 -20.083,47.407 1.791,0.795 23.083,-51.898 -19.445,53.369 1.84,0.671 18.486,-48.053 -14.6,49.485 1.753,0.646 19.22,-61.376 -0.037,-0.162 0.048,0.019 c 1.278,0.429 2.578,0.807 3.885,1.163 -1.463,29.48 -5.824,54.698 -5.824,54.698 0,0 5.4,-24.996 15.082,-52.867 1.348,0.166 2.705,0.307 4.073,0.399 l -0.043,0.064 h 0.168 l -0.096,0.141 -5.174,64.106 1.87,0.059 4.998,-51.352 -0.859,51.478 1.956,0.066 1.962,-56.766 1.96,56.767 1.96,-0.067 -0.861,-51.478 4.999,51.351 1.869,-0.058 -5.174,-64.106 -0.097,-0.141 h 0.028 l -0.014,-0.02 h 0.085 c 1.338,-0.084 2.665,-0.218 3.982,-0.376 9.669,27.844 15.06,52.8 15.06,52.8 0,0 -4.348,-25.142 -5.818,-54.568 1.32,-0.349 2.626,-0.732 3.913,-1.154 l 19.152,61.163 1.755,-0.647 -14.602,-49.485 18.488,48.053 1.838,-0.672 -19.446,-53.368 23.083,51.899 1.793,-0.796 -20.084,-47.408 23.872,45.739 1.712,-0.753 -28.71,-57.295 0.049,-0.02 c 1.183,-0.576 2.341,-1.191 3.487,-1.827 19.419,22.213 33.791,43.368 33.791,43.368 0,0 -13.488,-21.742 -25.888,-48.523 1.108,-0.836 2.192,-1.7 3.244,-2.599 l 40.629,49.488 1.386,-1.257 -32.077,-40.412 35.143,37.628 1.451,-1.312 -38.021,-42.197 40.844,39.473 1.363,-1.41 -36.379,-36.432 39.267,33.465 1.306,-1.338 -48.058,-42.349 0.028,-0.029 c 0.839,-0.935 1.647,-1.9 2.44,-2.88 26.388,13.343 47.712,27.623 47.712,27.623 0,0 -20.72,-15.157 -42.289,-35.397 0.591,-0.986 1.545,-2.67 2.09,-3.686 l 56.221,30.611 0.813,-1.685 -44.879,-25.453 46.678,21.723 0.856,-1.76 -43.478,-21.186 0.834,-0.291 44.241,17.894 0.735,-1.817 -41.122,-17.491 0.769,-0.319 27.402,9.135 4.13,2.883 1.371,-1.047 9.017,3.006 0.709,-1.73 -7.801,-2.745 11.271,-8.601 3.612,-2.014 C 232.058,51.664 177.566,96.701 112.548,96.701 46.388,96.701 -8.873,50.067 -22.179,-12.12 c 0.171,0.083 0.336,0.16 0.507,0.244 l 1.651,0.748 1.013,0.473 z"
             style="fill:#e3a82b;fill-opacity:1;fill-rule:nonzero;stroke:none"
             id="path90" />
        </g>
        <g
           id="g92"
           transform="translate(72.4966,93.9892)">
          <path
             d="m 0,0 c 0,0 20.325,4.059 37.291,4.059 44.702,0 106.539,-25.171 151.407,-25.171 32.914,0 65.016,9.029 82.511,22.193 1.367,7.788 2.083,15.798 2.083,23.978 0,11.078 -1.315,21.847 -3.785,32.17 L 250.802,67.66 228.855,52.269 214.091,58.018 C 209.093,55.492 178.257,34.871 178.257,34.871 L 166.422,43.438 153.724,45.953 136.792,58.28 117.37,44.946 c 0,0 -21.669,-12.582 -22.413,-12.582 -0.748,0 -26.144,20.133 -26.144,20.133 L 57.112,64.824 C 55.119,63.566 47.16,59.914 47.16,59.914 L 46.751,59.806 39.049,62.188 29.696,67.149 1.286,54.267 C 1.115,54.183 0.95,54.105 0.779,54.022 -1.22,44.683 -2.28,34.995 -2.28,25.059 -2.28,16.501 -1.494,8.126 0,0"
             style="fill:#234075;fill-opacity:1;fill-rule:nonzero;stroke:none"
             id="path94" />
        </g>
      </g>
    </g>
  </g>
</svg>
