<?xml version="1.0" encoding="UTF-8"?>
<svg id="Layer_2" data-name="Layer 2" xmlns="http://www.w3.org/2000/svg" viewBox="0 0 173.35 54.73">
  <defs>
    <style>
      .cls-1 {
        fill: #fff;
      }

      .cls-2 {
        fill: #fdb913;
      }

      .cls-3 {
        fill: #4c81af;
      }

      .cls-4 {
        fill: none;
      }
    </style>
  </defs>
  <rect class="cls-2" x="81.25" y="45.26" width="68.75" height=".83"/>
  <path class="cls-1" d="M14.68,39.66c9.73,0,23.2,5.48,33,5.48,7,0,13.78-1.86,17.65-4.6,2.43-16.18-8.71-31.26-24.88-33.7C24.46,4.44,9.51,15.28,6.83,31.22c-.23,1.45-.36,2.91-.37,4.37,0,1.65,.14,3.3,.41,4.93,2.58-.5,5.19-.79,7.81-.86Z"/>
  <polygon class="cls-2" points="55.22 28.74 56.39 29.23 58.99 27.42 55.22 28.74"/>
  <path class="cls-2" d="M11.58,26.72l-3.08-1.08,.16-.38,3.42,1.16h0l.46-.26,.18-.11-3.73-1.63,.16-.4,8.44,3.41,.28-.12-8.37-4.06,.19-.4,8.87,4.13,.12-.06-8.6-4.87,.18-.37,12.42,6.76c.1-.19,.32-.53,.42-.71-2.95-2.76-6.05-5.35-9.28-7.77,3.38,2.2,6.87,4.22,10.47,6.05,.19-.24,.35-.43,.55-.66l-10.59-9.32,.28-.29,8.55,7.29-7.92-7.94,.3-.31,8.89,8.6-8.27-9.19,.32-.28,7.68,8.19-7-8.8,.3-.27,9,10.89c.23-.2,.42-.35,.66-.54-1.69-3.65-3.58-7.19-5.67-10.63,2.29,3.3,4.76,6.46,7.4,9.49,.26-.15,.52-.29,.79-.42h0l-6.38-12.54,.37-.17,5.2,10-4.38-10.36,.39-.17,5,11.3-4.2-11.62,.4-.15,4,10.46-3.16-10.72,.38-.14,4.19,13.36h0c.28-.09,.56-.18,.85-.25-.21-4.01-.63-8.01-1.27-11.97,.89,3.89,1.99,7.73,3.29,11.51l.89-.09h0l-1.13-14h.41l1.09,11.24-.19-11.2h.43l.43,12.36,.43-12.36h.48l-.2,11.21,1.04-11.18h.41l-1.13,14h0l.87,.08c1.3-3.77,2.39-7.61,3.28-11.5-.64,3.92-1.06,7.88-1.27,11.85l.85,.25,4.15-13.32,.38,.14-3.16,10.78,4-10.46,.4,.15-4.21,11.61,5-11.3,.39,.17-4.34,10.33,5.2-10,.37,.17-6.25,12.56h0c.26,.12,.51,.26,.76,.4,2.62-3.03,5.08-6.2,7.36-9.49-2.07,3.42-3.95,6.94-5.63,10.56,.24,.18,.48,.37,.71,.57l8.85-10.78,.3,.27-7,8.8,7.65-8.19,.32,.29-8.28,9.19,8.89-8.62,.3,.31-7.91,7.95,8.55-7.26,.28,.29-10.46,9.2h0c.18,.2,.36,.41,.53,.63,3.57-1.81,7.04-3.82,10.39-6-3.21,2.4-6.28,4.97-9.21,7.71,.13,.21,.34,.58,.46,.8l12.24-6.63,.18,.37-9.77,5.54,10.17-4.73,.19,.38-9.47,4.61,.18,.06,9.64-3.93,.16,.39-9,3.81,.17,.07,6-2,.9-.63,.3,.23,2-.65,.16,.38-1.7,.6,2.41,1.87,.79,.44C61.42,12.54,45.24,2.59,29.12,6.44c-11.25,2.69-19.96,11.6-22.38,22.92l.11-.05,.36-.16,.22-.11,4.14-2.32Z"/>
  <path class="cls-3" d="M6.58,41.13c2.68-.52,5.39-.82,8.12-.89,9.73,0,23.2,5.48,33,5.48,7.17,0,14.16-2,18-4.83,.71-4.06,.59-8.22-.37-12.23l-4.07-2.27-4.78,3.35-3.28-1.22c-1.09,.55-7.8,5-7.8,5l-2.58-1.87-2.74-.53-3.69-2.69-4.23,2.9s-4.72,2.74-4.88,2.74-5.69-4.38-5.69-4.38l-2.51-2.69c-.43,.27-2.17,1.07-2.17,1.07h-.13l-1.7-.49-2-1.06-6.22,2.79-.11,.05c-.83,3.87-.89,7.87-.17,11.77Z"/>
  <path class="cls-1" d="M137.27,15.85h.56c.58,0,.7,0,.7,1.7v6.07q0,1.35-.64,1.37h-.55l-.07,.05c-.21,.24-.21,.59,0,.83l.06,.06h4.58c.15-.12,.23-.32,.21-.51,0-.16-.07-.32-.2-.41l-.14-.05h-.49c-.68,0-.75,0-.75-1.67v-2.18c0-.07,0-.14,0-.21h5.54c.19-.02,.38-.02,.57,0,0,.06,0,.13,0,.19v2.56q0,1.37-.74,1.39h-.42l-.1,.07c-.23,.23-.23,.61,0,.84l.06,.07h4.44c.15-.12,.23-.32,.21-.51,0-.16-.07-.31-.2-.41h-.58q-.69-.07-.69-1.57v-5.93q0-1.63,.72-1.7h.42c.24-.11,.37-.38,.3-.64-.02-.2-.18-.35-.38-.35h-4.24c-.15,.12-.23,.32-.21,.51,0,.16,.07,.31,.2,.4h.48q.76,0,.76,1.7v1.93c0,.07,0,.13,0,.2h-5.49c-.19,.02-.38,.02-.57,0,0-.06,0-.12,0-.18v-1.87q0-1.63,.72-1.7h.39c.24-.11,.36-.38,.3-.63-.02-.2-.18-.35-.38-.36h-4.33c-.15,.13-.23,.32-.21,.52-.03,.16,.03,.32,.16,.42Z"/>
  <path class="cls-1" d="M140.36,34.77h0c1.23-.54,1.79-1.96,1.26-3.19-.27-.62-.77-1.09-1.4-1.32-.96-.33-1.98-.48-3-.45h-.27c-1.58,0-2.88,0-4,.13-.15,0-.28,.1-.31,.25-.05,.23,0,.48,.14,.67h.71c.54,0,.64,.1,.64,1.33v6.14c0,1.6,.07,1.66-.67,1.77h-.35c-.08,0-.17,.02-.23,.08-.11,.11-.17,.26-.16,.41,0,.15,.06,.3,.17,.41h4.58c3.32,0,5.23-1.26,5.23-3.45-.1-1.34-1.04-2.46-2.34-2.78Zm-4.02-3.61s0-.09,.02-.13h0s.07-.01,.07-.01c.22-.07,.44-.1,.67-.1h.12c1.15,0,2.48,.5,2.48,1.89,0,1-.45,1.7-2.68,1.77h-.68v-3.42Zm1.55,8.95h0s-.19-.01-.19-.01c-.36,0-.71-.13-1-.36-.27-.46-.39-1-.33-1.54v-2.46c.27-.07,.55-.1,.83-.07,2.81,0,3.4,1.34,3.4,2.47-.03,1.63-1.52,1.97-2.71,1.97Z"/>
  <path class="cls-1" d="M110.08,17.17h0c.11,.18,.31,.29,.52,.29,.11,0,.21-.03,.3-.08h0v-.05h0c.14-.38,.36-.72,.65-1,.59-.28,1.23-.39,1.88-.34h1.11v7.86q0,1.15-.62,1.2h-.62l-.18,.06h-.05c-.23,.23-.23,.6,0,.83,0,0,0,0,0,0l.06,.05h4.8c.15-.12,.23-.32,.21-.51,.01-.16-.07-.32-.21-.41l-.1-.06h-.54q-.69-.05-.69-1.57v-7.55h1.48c.62-.07,1.24,.06,1.78,.36,.17,.28,.27,.61,.27,.94v.08l.06,.08c.12,.12,.28,.19,.45,.19,.15,0,.3-.06,.41-.16l.07-.06v-.13c-.02-.81,.06-1.61,.24-2.4v-.13l.06-.24h-.85l-.06,.1v.05q-.17,.3-1,.3h-6.8c-.84,0-1-.05-1.08-.26h0l-.06-.07h0c-.17-.07-.37-.07-.54,0h0l-.06,.07h0c-.14,.8-.35,1.58-.61,2.35h0v.14l-.28,.06Z"/>
  <path class="cls-1" d="M122.77,25.05h-.55l-.06,.06c-.23,.23-.24,.61,0,.85,0,0,0,0,0,0l.1,.07v.05h4.56l.09-.05c.14-.13,.22-.33,.2-.52,0-.16-.08-.31-.22-.4h-.54q-.81-.05-.81-1.7v-5.78q0-1.69,.81-1.75h.51c.25-.11,.37-.38,.3-.64-.02-.2-.18-.35-.38-.35h-4.55c-.16,.13-.24,.33-.22,.54,0,.16,.08,.31,.22,.39h.54c.79,0,.8,0,.8,1.75v5.78c-.02,1.61-.03,1.62-.83,1.7h.03Z"/>
  <path class="cls-1" d="M105.4,25.05h-.55l-.06,.06c-.23,.23-.24,.6-.02,.83,0,0,.01,.01,.02,.02h0l.12,.06h4.46l.1-.05c.15-.12,.23-.32,.21-.51,.01-.16-.07-.32-.21-.41h-.55q-.8-.05-.8-1.7v-5.72q0-1.69,.81-1.75h.51c.24-.11,.37-.38,.3-.64-.02-.2-.18-.35-.38-.35h-4.57c-.15,.14-.23,.34-.22,.54,0,.16,.09,.31,.23,.39h.54c.79,0,.8,0,.8,1.75v5.78c.04,1.61,.03,1.62-.77,1.7h.03Z"/>
  <path class="cls-1" d="M160.68,40.43c-.05-.07-.11-.13-.18-.17h.03l-.06-.06h-.64c-.41-.1-.63-.69-.84-1.2l-.1-.23-3.61-8.56c-.05-.23-.25-.39-.48-.39-.38,0-.51,.36-.56,.51l-3.46,8.52c-.15,.43-.36,.85-.61,1.23-.12,.09-.27,.14-.43,.15h-.83l-.06,.06c-.22,.24-.22,.6,0,.84l.1,.08h3.93c.23-.23,.23-.61,0-.84h-.74c-.33,0-.49-.18-.49-.32,.02-.28,.1-.56,.22-.81l.53-1.27c.04-.08,.08-.16,.12-.25q.09-.23,.48-.23h2.41q.54,0,.7,.39c0,.08,.08,.18,.12,.28l.57,1.29c.1,.2,.17,.42,.21,.64,0,.1-.08,.28-.57,.28h-.57l-.06,.06c-.23,.22-.23,.58-.01,.81,0,0,0,0,.01,.01l.06,.06h4.59l.06-.06c.27-.18,.34-.55,.16-.82Zm-5.23-4.24h-.07s-2.41,0-2.41,0c.39-1,.95-2.39,1.23-3.05,.28,.65,.85,2,1.25,2.95,0,.03,0,.06,0,.09Z"/>
  <path class="cls-1" d="M117.03,30.07h-4.11l-.06,.06c-.23,.24-.23,.62,0,.86l.06,.06h.64c.18-.03,.37,0,.53,.09,.17,1.68,.23,3.38,.19,5.07,0,2.93-1.6,4-3.1,4-2.18,0-3.15-1.23-3.15-4v-3.86q0-1.31,.65-1.36h.46c.21-.13,.31-.39,.24-.63-.05-.19-.22-.32-.41-.32h-4.24c-.15,.12-.23,.32-.21,.51,0,.16,.07,.32,.21,.41h.53q.71,0,.71,1.63v3.86c0,2,.46,3.25,1.45,4,.88,.61,1.93,.94,3,.95h.5c1.21,0,2.38-.45,3.29-1.26,.98-1.11,1.45-2.58,1.28-4.05,0,0,0-3.85,.22-5,.13-.11,.31-.17,.48-.16h.69c.11-.12,.19-.27,.21-.43,.03-.15,0-.31-.09-.43h.03Z"/>
  <path class="cls-1" d="M89.39,18.54c1.07-.42,1.78-1.44,1.79-2.59,.02-1.16-.69-2.22-1.78-2.63-1-.37-2.07-.56-3.14-.56h-.51c-1.9,0-3.33,.05-4.49,.15-.16,.02-.29,.15-.32,.31-.07,.25,0,.51,.17,.7l.12,.23h.76c.56,0,.71,0,.71,1.53l.09,7.2c0,1.91,0,1.92-.9,2.05l-.44,.09h-.06c-.23,.25-.23,.63,0,.88h5.01c3.72,0,5.85-1.44,5.85-3.95-.03-1.67-1.22-3.09-2.86-3.41Zm-4.44-.33v-3.82c0-.07,.02-.14,.05-.2,.23-.07,.48-.11,.72-.11h.18c1.32,0,2.83,.58,2.83,2.24,0,1.24-.5,2-3,2.11h-.44c-.11,.01-.23,.01-.34,0v-.22Zm1.83,6.58h-.22c-.43,0-.85-.15-1.18-.44-.3-.55-.43-1.17-.38-1.79v-2.82s0-.08,0-.12c.29-.08,.6-.1,.9-.07,3.38,0,3.88,1.82,3.88,2.91,0,1.92-1.63,2.33-3,2.33Z"/>
  <path class="cls-1" d="M105.17,38.3c-.11-.06-.23-.09-.36-.09-.11,0-.23,.03-.32,.09h0v.07c-.22,.6-.61,1.12-1.12,1.49-.56,.16-1.15,.23-1.73,.18h-.56c-.52,.09-1.05,.02-1.53-.19-.21-.21-.27-.53-.27-1.52v-5.64c0-1.63,.06-1.64,.8-1.7h.49c.22-.12,.33-.38,.26-.62-.02-.2-.18-.35-.38-.36h-4.58c-.15,.13-.23,.33-.22,.53,0,.16,.09,.31,.23,.4h.53q.87,.05,.87,1.7v5.79q0,1.63-.76,1.71h-.64l-.06,.07c-.22,.24-.22,.6,0,.84l.06,.06h8.68l.05-.12v-.05c.33-.75,.59-1.52,.77-2.32-.01-.14-.09-.26-.21-.32Z"/>
  <path class="cls-1" d="M82.66,37.39c-.12,0-.24,.04-.35,.1h-.06l-.06,.09c-.52,1.57-1.99,2.62-3.64,2.61h-.15c-3.27,0-5.55-2.49-5.55-6,0-4.12,2.69-5.59,5.2-5.59,2.08,0,3.33,.87,3.71,2.59v.07l.06,.07c.13,.12,.3,.19,.48,.19,.17,0,.33-.05,.46-.16h0l.08-.07v-.16c-.16-1.24-.27-2.4-.27-2.81v-.32h-.37c-.13,0-.26-.02-.38-.07-1.15-.3-2.33-.46-3.52-.48h-.22c-1.87,0-3.69,.61-5.19,1.72-1.64,1.31-2.57,3.3-2.53,5.4-.06,2.24,1.04,4.35,2.9,5.59,1.4,.89,3.03,1.35,4.69,1.35h.32c1.07-.01,2.13-.17,3.15-.47,.21-.08,.44-.15,.66-.19h.09l.09-.09c.52-.87,.86-1.84,1-2.84v-.21c-.14-.19-.36-.31-.6-.32Z"/>
  <path class="cls-1" d="M147.27,31h.49c.24-.11,.37-.37,.31-.63-.02-.2-.19-.35-.39-.36h-4.47c-.15,.12-.23,.31-.22,.51,0,.16,.07,.32,.21,.41h.53c.75,0,.77,0,.77,1.75v5.72c0,1.61,0,1.62-.79,1.7h-.54v.06c-.23,.23-.24,.61,0,.85,0,0,0,0,0,0l.06,.06h4.63c.15-.13,.23-.31,.22-.51,0-.16-.08-.32-.21-.41h-.53q-.76,0-.76-1.7v-5.7c-.08-1.69-.04-1.69,.69-1.75Z"/>
  <rect class="cls-4" x="6.08" y="4.85" width="155" height="42"/>
</svg>