<?xml version="1.0" encoding="UTF-8" standalone="no"?>
<svg
   xmlns:dc="http://purl.org/dc/elements/1.1/"
   xmlns:cc="http://creativecommons.org/ns#"
   xmlns:rdf="http://www.w3.org/1999/02/22-rdf-syntax-ns#"
   xmlns:svg="http://www.w3.org/2000/svg"
   xmlns="http://www.w3.org/2000/svg"
   xmlns:xlink="http://www.w3.org/1999/xlink"
   width="120.15614mm"
   height="137.90257mm"
   viewBox="0 0 120.15616 137.90257"
   version="1.1"
   id="svg8">
  <defs
     id="defs2">
    <linearGradient
       id="linearGradient1515">
      <stop
         style="stop-color:#fa3030;stop-opacity:1"
         offset="0"
         id="stop1511" />
      <stop
         style="stop-color:#b6110e;stop-opacity:1"
         offset="1"
         id="stop1513" />
    </linearGradient>
    <clipPath
       id="clipPath3035"
       clipPathUnits="userSpaceOnUse">
      <path
         id="path3037"
         d="m -0.30829,-8.20527 h 5.06393 v 9.7702 h -5.06393 z" />
    </clipPath>
    <clipPath
       id="clipPath3025"
       clipPathUnits="userSpaceOnUse">
      <path
         id="path3027"
         d="M 0,0 H 593.99994 V 791.99994 H 0 Z" />
    </clipPath>
    <clipPath
       id="clipPath3017"
       clipPathUnits="userSpaceOnUse">
      <path
         id="path3019"
         d="m 0,650.2679 h 141.732 v 141.732 H 0 Z" />
    </clipPath>
    <clipPath
       id="clipPath3150"
       clipPathUnits="userSpaceOnUse">
      <path
         id="path3152"
         d="m -0.38789,-0.47304 h 5.87003 v 9.9 h -5.87003 z" />
    </clipPath>
    <clipPath
       id="clipPath3140"
       clipPathUnits="userSpaceOnUse">
      <path
         id="path3142"
         d="M 0,0 H 593.99994 V 791.99994 H 0 Z" />
    </clipPath>
    <clipPath
       id="clipPath3132"
       clipPathUnits="userSpaceOnUse">
      <path
         id="path3134"
         d="M 1,0 H 118.842 V 119.5499 H 1 Z" />
    </clipPath>
    <clipPath
       id="clipPath3439"
       clipPathUnits="userSpaceOnUse">
      <path
         id="path3441"
         d="m 50.441,691.8 h 99 v -56.76 h -99 z"
         style="clip-rule:evenodd" />
    </clipPath>
    <clipPath
       id="clipPath3150-2"
       clipPathUnits="userSpaceOnUse">
      <path
         id="path3152-8"
         d="m -0.38789,-0.47304 h 5.87003 v 9.9 h -5.87003 z" />
    </clipPath>
    <filter
       style="color-interpolation-filters:sRGB"
       id="filter1173">
      <feFlood
         flood-opacity="0.498039"
         flood-color="rgb(0,0,0)"
         result="flood"
         id="feFlood1163" />
      <feComposite
         in="flood"
         in2="SourceGraphic"
         operator="in"
         result="composite1"
         id="feComposite1165" />
      <feGaussianBlur
         in="composite1"
         stdDeviation="3"
         result="blur"
         id="feGaussianBlur1167" />
      <feOffset
         dx="6"
         dy="6"
         result="offset"
         id="feOffset1169" />
      <feComposite
         in="SourceGraphic"
         in2="offset"
         operator="over"
         result="composite2"
         id="feComposite1171" />
    </filter>
    <linearGradient
       id="linearGradient6760">
      <stop
         style="stop-color:#333333;stop-opacity:1"
         offset="0"
         id="stop6762" />
      <stop
         style="stop-color:#525252;stop-opacity:1"
         offset="1"
         id="stop6764" />
    </linearGradient>
    <linearGradient
       id="linearGradient6754">
      <stop
         id="stop6756"
         offset="0"
         style="stop-color:#ffd3d3;stop-opacity:1" />
      <stop
         style="stop-color:#ff6f6f;stop-opacity:0.37647059;"
         offset="0.76420587"
         id="stop6768" />
      <stop
         id="stop6758"
         offset="1"
         style="stop-color:#ff3333;stop-opacity:0" />
    </linearGradient>
    <linearGradient
       x1="345.06525"
       y1="1071.3171"
       x2="345.06525"
       y2="-135.11966"
       id="linearGradient3049"
       gradientUnits="userSpaceOnUse"
       gradientTransform="scale(1.58195,0.632131)">
      <stop
         id="stop3051"
         style="stop-color:#912420;stop-opacity:1"
         offset="0" />
      <stop
         id="stop3053"
         style="stop-color:#ce332d;stop-opacity:1"
         offset="0.48934084" />
    </linearGradient>
    <linearGradient
       gradientTransform="scale(1.58195,0.632131)"
       gradientUnits="userSpaceOnUse"
       id="linearGradient3039"
       y2="-135.11966"
       x2="345.06525"
       y1="1071.3171"
       x1="345.06525">
      <stop
         offset="0"
         style="stop-color:#912420;stop-opacity:1"
         id="stop3041" />
      <stop
         offset="0.96720499"
         style="stop-color:#ffeeee;stop-opacity:1"
         id="stop3045" />
    </linearGradient>
    <linearGradient
       id="linearGradient3014">
      <stop
         id="stop3016"
         style="stop-color:#ffffff;stop-opacity:1"
         offset="0" />
      <stop
         id="stop3018"
         style="stop-color:#b3b3b3;stop-opacity:1"
         offset="1" />
    </linearGradient>
    <linearGradient
       x1="345.06525"
       y1="1071.3171"
       x2="345.06525"
       y2="-135.11966"
       id="g"
       gradientUnits="userSpaceOnUse"
       gradientTransform="scale(1.58195,0.632131)">
      <stop
         id="stop7"
         style="stop-color:#590000;stop-opacity:1"
         offset="0" />
      <stop
         id="stop9"
         style="stop-color:#ff0000;stop-opacity:1"
         offset="0.96720499" />
      <stop
         id="stop11"
         style="stop-color:#ffeeee;stop-opacity:1"
         offset="0.96720499" />
    </linearGradient>
    <linearGradient
       x1="345.06525"
       y1="1071.3171"
       x2="345.06525"
       y2="-135.11966"
       id="linearGradient3774"
       xlink:href="#g"
       gradientUnits="userSpaceOnUse"
       gradientTransform="scale(1.58195,0.632131)" />
    <linearGradient
       x1="339.63776"
       y1="1097.2302"
       x2="339.63776"
       y2="-635.19543"
       id="linearGradient3774-1"
       xlink:href="#g"
       gradientUnits="userSpaceOnUse"
       gradientTransform="matrix(1.58195,0,0,0.632131,320.259,117.629)" />
    <linearGradient
       x1="339.63776"
       y1="1097.2302"
       x2="339.63776"
       y2="-635.19543"
       id="linearGradient3943"
       xlink:href="#g"
       gradientUnits="userSpaceOnUse"
       gradientTransform="matrix(1.58195,0,0,0.632131,-137.182,-82.6614)" />
    <linearGradient
       x1="339.63776"
       y1="1097.2302"
       x2="339.63776"
       y2="-635.19543"
       id="linearGradient3965"
       xlink:href="#g"
       gradientUnits="userSpaceOnUse"
       gradientTransform="matrix(1.58195,0,0,0.632131,6.70141,-52.6713)" />
    <linearGradient
       x1="339.63776"
       y1="1097.2302"
       x2="339.63776"
       y2="-635.19543"
       id="linearGradient4014"
       xlink:href="#g"
       gradientUnits="userSpaceOnUse"
       gradientTransform="matrix(1.58195,0,0,0.632131,-0.584086,0.75571)" />
    <linearGradient
       x1="339.63776"
       y1="1107.8513"
       x2="339.63776"
       y2="-635.19543"
       id="linearGradient4038"
       xlink:href="#linearGradient3039"
       gradientUnits="userSpaceOnUse"
       gradientTransform="matrix(1.58195,0,0,0.632131,-0.584086,0.75571)" />
    <linearGradient
       x1="543.32074"
       y1="441.51886"
       x2="543.32074"
       y2="817.55579"
       id="linearGradient3020"
       xlink:href="#linearGradient3014"
       gradientUnits="userSpaceOnUse" />
    <linearGradient
       xlink:href="#linearGradient6754"
       id="linearGradient6752"
       x1="802.93817"
       y1="313.49374"
       x2="744.25781"
       y2="412.44492"
       gradientUnits="userSpaceOnUse"
       gradientTransform="matrix(0.18336638,0,0,0.17915745,302.33499,-35.79822)" />
    <linearGradient
       xlink:href="#linearGradient6760"
       id="linearGradient6766"
       x1="-176.21803"
       y1="403.24011"
       x2="-173.91684"
       y2="341.108"
       gradientUnits="userSpaceOnUse"
       gradientTransform="matrix(0.18876821,0,0,0.17883778,402.44211,-105.46463)" />
    <linearGradient
       xlink:href="#linearGradient1515"
       id="linearGradient1517"
       x1="335.91049"
       y1="13.47416"
       x2="335.91049"
       y2="92.001495"
       gradientUnits="userSpaceOnUse" />
  </defs>
  <metadata
     id="metadata5">
    <rdf:RDF>
      <cc:Work
         rdf:about="">
        <dc:format>image/svg+xml</dc:format>
        <dc:type
           rdf:resource="http://purl.org/dc/dcmitype/StillImage" />
        <dc:title></dc:title>
      </cc:Work>
    </rdf:RDF>
  </metadata>
  <g
     id="layer1"
     transform="translate(-335.91049,45.901081)">
    <rect
       style="fill:url(#linearGradient1517);fill-opacity:1;stroke:none;stroke-width:1.3705;stroke-linejoin:round;paint-order:stroke fill markers"
       id="rect1505"
       width="120.15614"
       height="78.527336"
       x="335.91049"
       y="13.47416"
       ry="16.552763" />
    <path
       d="m 392.80725,7.7899998 c -3.42295,-0.393806 -6.56709,-2.301833 -8.08201,-4.904574 -1.54443,-2.65342509 -1.68533,-4.0431628 -1.59444,-15.7260378 0.0704,-9.049344 0.095,-9.616618 0.47363,-10.91251 0.90247,-3.089024 2.6499,-5.195883 5.36272,-6.465798 3.72309,-1.742837 7.73556,-1.515374 11.24864,0.637671 2.23638,1.370603 3.59546,3.352562 4.3207,6.30089 0.32121,1.305878 0.35192,2.304485 0.35192,11.445618 0,11.11220387 -0.057,11.75436174 -1.25789,14.1622517 -1.15696,2.3198911 -3.77292,4.3639121 -6.50279,5.0810641 -1.20133,0.315591 -3.28998,0.499986 -4.32048,0.381425 z m 2.99952,-7.25781109 c 1.31115,-0.94744717 1.3204,-1.02531494 1.39306,-11.73140471 0.0564,-8.31488 0.0701,-10.96349 -0.19642,-12.098004 -0.35899,-1.52873 -1.00029,-1.825102 -2.23035,-2.138897 -1.59277,-0.40633 -3.08527,0.490727 -3.59048,2.138897 -0.38918,1.269562 -0.38515,20.8998928 0.004,22.1720347 0.29174,0.95232704 1.23996,1.99592798 1.94257,2.137968 0.9131,0.184591 2.03533,-0.01688 2.67706,-0.48059399 z m 19.27512,7.26556509 c -1.89776,-0.239383 -3.00531,-0.93312 -3.76541,-2.358552 -0.9543,-1.789597 -0.9538,-1.779119 -0.9538,-19.5988338 v -16.631909 h 3.82775 3.82775 l 0.0808,15.32897 c 0.0879,16.6534177 0.0617,16.26472968 1.11383,16.5149177 0.96615,0.229732 2.03431,-0.26084402 3.3674,-1.54655133 l 1.27711,-1.23171947 0.0483,-14.5328109 0.0483,-14.532806 3.82257,-0.04842 3.82255,-0.04842 v 19.035713 19.0357158 l -0.51912,0.101014 c -0.62627,0.121868 -6.42301,0.113929 -6.89004,-0.0094 -0.28542,-0.0754 -0.33034,-0.32192 -0.33034,-1.813279 v -1.726019 l -1.08541,1.001197 c -2.49762,2.303822 -5.19301,3.376477 -7.69231,3.061216 z M 365.4125,7.1756798 c -0.16057,-0.246128 -0.13648,-14.9592489 0.0279,-17.0432061 0.21078,-2.6722207 1.15446,-4.6786587 -0.87035,-10.0514937 -0.65733,-1.744222 -1.229,-5.454985 -2.0211,-7.841912 -5.72213,-17.243418 -6.55228,-15.994773 -6.00557,-15.999196 3.76921,-0.03048 7.52692,-0.0092 7.57751,0.03873 0.0363,0.03437 1.26173,4.24528 2.72321,9.357579 1.46147,5.112297 2.68128,9.367869 2.71067,9.456828 0.0293,0.08896 0.88726,-2.888684 1.90641,-6.616994 2.1364,-7.815617 3.33517,-12.130777 3.38103,-12.170526 0.0956,-0.08284 1.15818,-0.101975 4.63035,-0.08337 v 0 0 c -0.0693,0.475175 -2.28744,6.586309 -5.03362,15.069554 -0.30249,0.934429 -0.54754,2.403798 -1.17977,4.420193 -0.63224,2.016397 -1.08224,6.118892 -0.75878,7.023456 l 1.33567,3.735257 v 10.3583996 c 0,9.7133012 -0.0206,10.3637322 -0.33034,10.4440222 -0.68896,0.178569 -7.97033,0.09101 -8.09319,-0.09732 z"
       id="path19-9"
       style="fill:#696969;fill-opacity:1;stroke:none;stroke-width:0.183735;stroke-miterlimit:4;stroke-dasharray:none;stroke-opacity:1" />
    <path
       style="fill:url(#linearGradient6752);fill-opacity:1;stroke:none;stroke-width:0.181249"
       id="path6750"
       d="m 384.1945,90.379797 c -4.19681,-0.07222 -9.16566,-0.184742 -11.04188,-0.250155 -12.59784,-0.43924 -21.24704,-0.908735 -22.97516,-1.247139 -2.46326,-0.482358 -5.21597,-2.097802 -6.81361,-3.998608 -2.56053,-3.046421 -3.92415,-6.742618 -4.58648,-12.432096 -1.53983,-13.2273 -1.50567,-28.64915 0.0917,-41.413778 0.69959,-5.590338 2.44012,-9.631784 5.36173,-12.449694 1.66733,-1.608161 0.77462,2.227033 2.91123,1.697423 4.62289,-1.145881 43.22137,-5.818937 65.23801,-5.344682 12.71697,0.273933 25.67367,-0.179558 29.32609,0.222966 4.72353,0.520564 8.73304,3.912778 11.02821,8.409565 1.73294,3.395252 1.59637,4.924181 1.60549,13.345947 0.007,6.47606 -0.19044,12.000657 -0.28937,19.444701 -0.11838,8.909282 1.74547,15.084957 0.87193,19.49143 -0.92319,4.656982 -3.10849,8.628204 -5.93033,10.776817 -2.18049,1.660281 -4.50219,2.400969 -8.15186,2.600696 -1.08623,0.05945 -2.45972,0.144395 -3.05221,0.18879 -2.10757,0.157887 -13.38435,0.601146 -19.57017,0.769243 -9.19401,0.24985 -25.27676,0.338993 -34.02336,0.188574 z" />
    <path
       d="m 345.88937,26.093931 v 3.464206 3.458507 l 4.1727,0.05128 4.1727,0.05128 0.0468,21.970358 c 0.0254,12.083696 0.0853,22.070787 0.13479,22.198264 0.0695,0.179061 0.93867,0.220529 3.80348,0.182327 l 3.70386,-0.04559 0.0938,-22.152682 0.0938,-22.152684 4.27234,-0.05128 4.27231,-0.05128 -0.0527,-3.412926 -0.0527,-3.412926 -12.33055,-0.05128 z m 53.63556,0.0057 v 25.708053 25.708052 h 3.37567 3.37566 v -1.732103 c 0,-1.14802 0.073,-1.732103 0.21098,-1.732103 0.11454,0 0.87303,0.605144 1.68783,1.350357 2.62561,2.401361 4.90025,3.064414 7.7359,2.250593 1.08657,-0.311845 2.41208,-1.572614 3.00646,-2.860248 1.14136,-2.472612 1.14279,-2.530564 1.14279,-16.42079 0,-11.403112 -0.0282,-12.808597 -0.32232,-14.039148 -0.94286,-3.945155 -3.00021,-5.672358 -6.45245,-5.418521 -1.93592,0.142346 -3.46131,0.891665 -5.28619,2.603852 -0.79291,0.743936 -1.50498,1.356018 -1.58234,1.356055 -0.0774,3.7e-5 -0.14066,-3.774162 -0.14066,-8.387025 v -8.387024 h -3.37566 z m 37.15576,12.774258 c -1.09893,0.02187 -2.19867,0.21326 -3.25258,0.586863 -3.6365,1.289096 -5.7853,3.612436 -6.65172,7.201903 -0.30622,1.268662 -0.33991,2.409609 -0.33991,11.708787 0,11.405157 0.043,11.870735 1.24243,14.204382 2.13702,4.15771 7.49041,6.325869 12.354,5.002586 3.61232,-0.982837 6.11149,-3.379059 7.0502,-6.763177 0.16045,-0.578293 0.33838,-2.217547 0.39852,-3.646532 l 0.11136,-2.598155 h -3.47528 -3.47531 l -0.0879,2.324665 c -0.0976,2.647457 -0.37657,3.55445 -1.36551,4.398629 -1.0554,0.900907 -2.99342,0.963123 -4.25474,0.136745 -1.49949,-0.982429 -1.87443,-2.643538 -1.79919,-8.045161 l 0.0527,-3.828859 7.19673,-0.05128 7.19673,-0.04558 -0.0996,-5.697706 c -0.11025,-6.353094 -0.24655,-7.317453 -1.3479,-9.572147 -1.63245,-3.341949 -5.52833,-5.394074 -9.45304,-5.315962 z m -64.34861,0.535584 V 55.91575 c 0,17.97501 0.0196,18.362458 1.05489,20.095811 1.13094,1.893491 3.78633,2.486713 6.58138,1.470008 1.34983,-0.491007 2.93116,-1.553087 4.26646,-2.871644 0.61564,-0.607922 1.22748,-1.105354 1.35964,-1.105354 0.18081,0 0.24029,0.496537 0.24029,2.005592 v 2.005593 h 3.37566 3.37567 V 58.462625 39.409493 h -3.37567 -3.37566 v 14.700085 14.694385 l -1.45342,1.407333 c -1.15386,1.115106 -1.639,1.450994 -2.35007,1.640939 -1.20868,0.322872 -1.96881,0.101328 -2.46728,-0.723608 -0.37613,-0.622465 -0.3836,-0.902413 -0.43368,-16.175789 l -0.0527,-15.543345 h -3.3698 z m 64.62404,5.401428 c 1.50677,0 2.45666,0.563857 3.10023,1.834661 0.40792,0.805494 0.45294,1.144977 0.50986,4.113744 l 0.0586,3.236297 h -3.67456 c -3.16871,0 -3.69446,-0.04405 -3.79177,-0.290582 -0.17396,-0.440779 0.0686,-5.55221 0.2989,-6.295966 0.54112,-1.74759 1.68862,-2.598154 3.49872,-2.598154 z m -27.02875,0.427328 c 1.05948,-0.03694 1.97125,0.435846 2.46142,1.395938 0.34125,0.668395 0.36426,1.268674 0.40438,11.463785 0.0385,9.781324 0.013,10.838115 -0.28131,11.663205 -0.22596,0.633567 -0.51621,1.03249 -0.96113,1.321868 -1.12442,0.731334 -2.75722,0.497823 -4.24301,-0.603957 l -0.65638,-0.484305 V 58.371431 46.742412 l 0.65638,-0.484305 c 0.88085,-0.653194 1.79561,-0.991155 2.61965,-1.019889 z"
       id="rect3947"
       style="opacity:0.753;fill:#a60707;fill-opacity:1;stroke:none;stroke-width:0.184913" />
    <path
       d="m 345.88937,27.305079 v 3.464206 3.458508 l 4.1727,0.05128 4.1727,0.05128 0.0468,21.970356 c 0.0254,12.083696 0.0853,22.070787 0.13479,22.198264 0.0695,0.179061 0.93867,0.22053 3.80348,0.182327 l 3.70386,-0.04558 0.0938,-22.152683 0.0938,-22.152682 4.27233,-0.05128 4.27231,-0.05128 -0.0527,-3.412926 -0.0527,-3.412926 -12.33055,-0.05128 z m 53.63556,0.0057 v 25.708052 25.708051 h 3.37567 3.37566 v -1.732103 c 0,-1.148019 0.073,-1.732103 0.21098,-1.732103 0.11454,0 0.87303,0.605144 1.68784,1.350357 2.62561,2.401361 4.90024,3.064415 7.73589,2.250594 1.08657,-0.311846 2.41208,-1.572614 3.00646,-2.860249 1.14136,-2.472611 1.1428,-2.530564 1.1428,-16.420789 0,-11.403113 -0.0283,-12.808597 -0.32232,-14.039149 -0.94286,-3.945152 -3.00022,-5.672356 -6.45246,-5.418519 -1.93592,0.142346 -3.4613,0.891665 -5.28619,2.603852 -0.79291,0.743934 -1.50498,1.356016 -1.58234,1.356054 -0.0774,3.7e-5 -0.14066,-3.774161 -0.14066,-8.387024 v -8.387024 h -3.37566 z m 37.15576,12.774258 c -1.09893,0.02187 -2.19866,0.21326 -3.25258,0.586863 -3.63649,1.289096 -5.7853,3.612434 -6.65171,7.201902 -0.30623,1.268661 -0.33992,2.409608 -0.33992,11.708787 0,11.405156 0.043,11.870734 1.24243,14.204382 2.13702,4.15771 7.49042,6.325869 12.354,5.002586 3.61232,-0.982837 6.1115,-3.379059 7.05021,-6.763178 0.16044,-0.578293 0.33837,-2.217547 0.39852,-3.646532 l 0.11136,-2.598154 h -3.47529 -3.4753 l -0.0879,2.324664 c -0.0976,2.647457 -0.37658,3.55445 -1.36551,4.398629 -1.05541,0.900907 -2.99343,0.963123 -4.25475,0.136746 -1.49949,-0.982429 -1.87443,-2.643539 -1.79919,-8.045162 l 0.0527,-3.828859 7.19673,-0.05128 7.19673,-0.04559 -0.0996,-5.697706 c -0.11026,-6.353094 -0.24656,-7.317452 -1.34791,-9.572147 -1.63245,-3.341946 -5.52833,-5.394072 -9.45304,-5.31596 z m -64.34861,0.535584 v 16.506256 c 0,17.975009 0.0196,18.362457 1.05489,20.095811 1.13095,1.89349 3.78634,2.486712 6.58138,1.470008 1.34983,-0.491008 2.93116,-1.553087 4.26646,-2.871644 0.61564,-0.607922 1.22748,-1.105355 1.35964,-1.105355 0.18081,0 0.24029,0.496537 0.24029,2.005593 v 2.005592 h 3.37566 3.37567 V 59.673771 40.620641 h -3.37567 -3.37566 v 14.700083 14.694385 l -1.45341,1.407334 c -1.15386,1.115105 -1.63901,1.450993 -2.35007,1.640939 -1.20869,0.322871 -1.96881,0.101328 -2.46729,-0.723609 -0.37613,-0.622465 -0.3836,-0.902413 -0.43368,-16.175789 l -0.0527,-15.543343 h -3.3698 z m 64.62405,5.401426 c 1.50676,0 2.45665,0.563858 3.10022,1.834661 0.40792,0.805494 0.45295,1.144977 0.50986,4.113745 l 0.0586,3.236297 h -3.67456 c -3.16871,0 -3.69445,-0.04406 -3.79177,-0.290583 -0.17396,-0.440778 0.0686,-5.55221 0.2989,-6.295966 0.54112,-1.747589 1.68862,-2.598154 3.49873,-2.598154 z m -27.02876,0.427328 c 1.05948,-0.03694 1.97125,0.435846 2.46142,1.395938 0.34125,0.668395 0.36427,1.268674 0.40438,11.463786 0.0385,9.781324 0.013,10.838115 -0.2813,11.663205 -0.22597,0.633566 -0.51622,1.03249 -0.96113,1.321868 -1.12443,0.731333 -2.75723,0.497822 -4.24302,-0.603957 L 406.65134,71.20593 V 59.582578 47.953558 l 0.65638,-0.484304 c 0.88085,-0.653194 1.79561,-0.991155 2.61965,-1.01989 z"
       id="rect3947-6"
       style="fill:#ffffff;fill-opacity:1;stroke:#ffffff;stroke-width:0.184913;stroke-opacity:1" />
    <text
       xml:space="preserve"
       style="font-style:normal;font-variant:normal;font-weight:normal;font-stretch:normal;font-size:50.8px;line-height:1.25;font-family:'Helvetica Neue';-inkscape-font-specification:'Helvetica Neue';letter-spacing:0px;word-spacing:0px;stroke-width:0.264583"
       x="-144.86008"
       y="-4.2763124"
       id="text859"><tspan
         id="tspan857"
         x="-144.86008"
         y="-4.2763124"
         style="font-style:normal;font-variant:normal;font-weight:normal;font-stretch:normal;font-family:'Helvetica Neue';-inkscape-font-specification:'Helvetica Neue';stroke-width:0.264583" /></text>
    <path
       d="M 392.80725,5.6733329 C 389.3843,5.279527 386.24016,3.3714997 384.72524,0.76875877 383.18081,-1.8846662 383.03991,-3.2744038 383.1308,-14.95728 c 0.0704,-9.049344 0.095,-9.616618 0.47363,-10.91251 0.90247,-3.089024 2.6499,-5.195883 5.36272,-6.465798 3.72309,-1.742837 7.73556,-1.515374 11.24864,0.637671 2.23638,1.370603 3.59546,3.352562 4.3207,6.30089 0.32121,1.305878 0.35192,2.304485 0.35192,11.445618 0,11.1122051 -0.057,11.7543633 -1.25789,14.16225264 -1.15696,2.31989116 -3.77292,4.36391206 -6.50279,5.08106426 -1.20133,0.3155915 -3.28998,0.4999858 -4.32048,0.381425 z m 2.99952,-7.2578112 c 1.31115,-0.9474469 1.3204,-1.0253147 1.39306,-11.7314057 0.0564,-8.31488 0.0251,-9.727875 -0.24139,-10.862389 -0.35899,-1.52873 -0.98873,-2.258908 -2.21879,-2.572703 -1.59277,-0.40633 -3.05186,0.457318 -3.55707,2.105488 -0.38918,1.269562 -0.38515,20.131494 0.004,21.4036359 0.29174,0.9523273 1.23996,1.9959284 1.94257,2.1379681 0.9131,0.18459094 2.03533,-0.016884 2.67706,-0.4805943 z m 19.27512,7.2655654 c -1.89776,-0.2393833 -3.00531,-0.9331196 -3.76541,-2.3585519 -0.9543,-1.7895976 -0.9538,-1.7791195 -0.9538,-19.5988352 v -16.631909 h 3.82775 3.82775 l 0.0808,15.32897 c 0.0879,16.65341862 0.0617,16.2647309 1.11383,16.5149194 0.96615,0.22973175 2.03431,-0.2608439 3.3674,-1.5465518 l 1.27711,-1.2317195 0.0483,-14.5328121 0.0483,-14.532806 3.82257,-0.04842 3.82255,-0.04842 v 19.035713 19.035717 l -0.51912,0.1010142 c -0.62627,0.1218674 -6.42301,0.113929 -6.89004,-0.00944 -0.28542,-0.075398 -0.33034,-0.3219201 -0.33034,-1.8132793 v -1.726019 l -1.08541,1.0011971 c -2.49762,2.3038218 -5.19301,3.3764767 -7.69231,3.0612156 z M 365.4125,5.0590127 c -0.16057,-0.2461276 -0.13648,-14.9592486 0.0279,-17.0432067 0.21078,-2.672221 -0.26295,-4.773153 -2.28776,-10.145988 -0.65733,-1.744222 -1.84321,-5.124256 -2.63531,-7.511183 -5.72213,-17.243418 -5.41835,-16.231008 -4.87164,-16.235431 3.76921,-0.03048 8.42461,-0.0092 8.4752,0.03873 0.0363,0.03437 1.26173,4.24528 2.72321,9.357579 1.46147,5.112297 2.68128,9.367869 2.71067,9.456828 0.0293,0.08896 0.88726,-2.888684 1.90641,-6.616994 2.1364,-7.815617 3.33517,-12.130777 3.38103,-12.170526 0.0956,-0.08284 1.15818,-0.101975 4.63035,-0.08337 l 3.8432,0.0206 -0.0846,0.581222 c -0.0693,0.475175 -2.6915,8.819308 -5.43768,17.302553 -0.30249,0.934429 -1.06726,3.348739 -1.69949,5.365134 -0.63224,2.016397 -1.3989,4.411549 -1.70372,5.322563 l -0.55421,1.656388 v 10.3584008 c 0,9.7133012 -0.0206,10.3637324 -0.33034,10.4440219 -0.68896,0.1785691 -7.97033,0.091012 -8.09319,-0.09732 z"
       id="path19"
       style="fill:url(#linearGradient6766);fill-opacity:1;stroke:none;stroke-width:0.183735;stroke-miterlimit:4;stroke-dasharray:none;stroke-opacity:1" />
  </g>
</svg>
